<svg xmlns="http://www.w3.org/2000/svg" viewBox="0 0 500 500"><g id="freepik--background-simple--inject-567"><path d="M423.87,132.36l-2.12-3.45c-17.86-29.06-50.15-46.58-84.19-44.45a89.47,89.47,0,0,0-13,1.76c-31,6.55-57.89,29.66-69,59.26-6.57,17.41-8.4,37.46-20.86,51.27-16.22,18-43.75,18.55-68,17.81s-51.75-.11-67.89,17.94c-10.1,11.31-13.31,27.39-12.5,42.53,2.16,40.1,30.45,76,66.43,93.76s78.34,19.42,117.72,11.58c55.16-11,107.62-41.14,139.16-87.71S449.1,182.63,423.87,132.36Z" style="fill:#f5f5f5"></path></g><g id="freepik--Floor--inject-567"><path d="M464,452.36c0,.14-95.81.26-214,.26s-214-.12-214-.26,95.79-.26,214-.26S464,452.22,464,452.36Z" style="fill:#263238"></path></g><g id="freepik--Character--inject-567"><rect x="112.66" y="413.96" width="11.9" height="38.4" style="fill:#263238"></rect><rect x="236.47" y="413.96" width="11.9" height="38.4" style="fill:#263238"></rect><rect x="161.58" y="413.96" width="11.9" height="38.4" style="fill:#263238"></rect><rect x="278.55" y="413.96" width="11.9" height="38.4" style="fill:#263238"></rect><path d="M290.73,417.89a17.35,17.35,0,0,0,17.17-14c2.85-14.47,6.52-34.71,6.63-57.43.07-13.94-3-31.59-7.36-44.84-6.29-19.36-19.77-36.42-39.35-42-25.42-7.25-34.63-4.47-52.66,5-19.61,10.28-24.92,29.57-45.33,38.16-19.82,8.33-43.72,5.49-61.79,17.14-15.9,10.25-23.65,29.94-24.28,48.85a104.88,104.88,0,0,0,2.9,29.87,23,23,0,0,0,22.21,17.74Z" style="fill:#455a64"></path><polygon points="138.66 355.7 84.06 427.9 64.99 423.68 108.99 346.48 138.66 355.7" style="fill:#ffbe9d"></polygon><path d="M84.67,427,67.2,453.19,34.47,431.61c2.25-3,23.32,1.89,23.32,1.89L68.3,416.24Z" style="fill:#5AA0D0"></path><g style="opacity:0.6000000000000001"><path d="M68.85,438.75a1.6,1.6,0,0,1-.08,2.13,1.54,1.54,0,0,1-2.12-.06,1.68,1.68,0,0,1,.1-2.26,1.6,1.6,0,0,1,2.19.31" style="fill:#fff"></path></g><g style="opacity:0.6000000000000001"><path d="M67.2,453.19l1.66-2.71-32-19.68s-1.88-.32-2.39.81Z" style="fill:#fff"></path></g><path d="M57.37,433c-.1.16.65.76,1.1,1.8s.42,2,.61,2,.56-1.05,0-2.29S57.43,432.81,57.37,433Z" style="fill:#263238"></path><path d="M53,432.14c-.14.13.38.86.47,1.89s-.21,1.85,0,2,.86-.74.72-2S53.11,432,53,432.14Z" style="fill:#263238"></path><path d="M48.34,435c.13.13.88-.52,1-1.67s-.35-2-.5-1.9,0,.87-.16,1.8S48.2,434.84,48.34,435Z" style="fill:#263238"></path><path d="M60.2,429.31c0,.19.85.46,1.71,1.11s1.38,1.41,1.56,1.33-.13-1.1-1.16-1.86S60.21,429.14,60.2,429.31Z" style="fill:#263238"></path><path d="M63.54,425.94c0,.07.52.58,1.65,1.08a8.87,8.87,0,0,0,2.06.6,8.55,8.55,0,0,0,1.27.12,2.57,2.57,0,0,0,.75-.06.83.83,0,0,0,.63-.8,1,1,0,0,0-.46-.83,2.89,2.89,0,0,0-.67-.32,7.41,7.41,0,0,0-1.25-.32,6.77,6.77,0,0,0-2.16,0c-1.23.2-1.88.62-1.84.69s.73-.15,1.89-.23a8.49,8.49,0,0,1,2,.14,9,9,0,0,1,1.14.33c.4.14.7.33.69.55s0,.1-.16.16a2.24,2.24,0,0,1-.55,0,9,9,0,0,1-1.19-.08,10.55,10.55,0,0,1-2-.44A16.16,16.16,0,0,0,63.54,425.94Z" style="fill:#263238"></path><path d="M63.6,426.31c0,.06.73-.3,1.47-1.3a6.06,6.06,0,0,0,1-1.94,5.61,5.61,0,0,0,.24-1.27,1.61,1.61,0,0,0-.5-1.52.91.91,0,0,0-1,0,2.56,2.56,0,0,0-.57.49,4.48,4.48,0,0,0-.73,1.1,4.56,4.56,0,0,0-.41,2.16c.08,1.27.62,1.9.67,1.85a13.87,13.87,0,0,1-.2-1.86,4.44,4.44,0,0,1,.5-1.88,4,4,0,0,1,.65-.93c.28-.31.6-.5.7-.38s.27.55.22.91a6.11,6.11,0,0,1-.18,1.16,7,7,0,0,1-.76,1.84C64.09,425.74,63.53,426.23,63.6,426.31Z" style="fill:#263238"></path><path d="M182.5,324.33H132.81a31.41,31.41,0,0,0-26.71,14.88L83,376.54l28.74,17.39,23.75-31.14,27-2.21,58.06-36.25Z" style="fill:#263238"></path><polygon points="156.45 355.7 101.85 427.9 82.79 423.68 126.78 346.48 156.45 355.7" style="fill:#ffbe9d"></polygon><path d="M102.47,427,85,453.19,52.26,431.61c2.26-3,23.33,1.89,23.33,1.89l10.5-17.26Z" style="fill:#5AA0D0"></path><g style="opacity:0.6000000000000001"><path d="M86.64,438.75a1.59,1.59,0,0,1-.08,2.13,1.54,1.54,0,0,1-2.12-.06,1.68,1.68,0,0,1,.1-2.26,1.6,1.6,0,0,1,2.19.31" style="fill:#fff"></path></g><g style="opacity:0.6000000000000001"><path d="M85,453.19l1.66-2.71-32-19.68s-1.88-.32-2.39.81Z" style="fill:#fff"></path></g><path d="M75.16,433c-.1.16.66.76,1.1,1.8s.43,2,.62,2,.55-1.05,0-2.29S75.23,432.81,75.16,433Z" style="fill:#263238"></path><path d="M70.8,432.14c-.14.13.37.86.47,1.89s-.22,1.85-.06,2,.86-.74.72-2S70.9,432,70.8,432.14Z" style="fill:#263238"></path><path d="M66.14,435c.12.13.87-.52,1-1.67s-.36-2-.51-1.9,0,.87-.15,1.8S66,434.84,66.14,435Z" style="fill:#263238"></path><path d="M78,429.31c0,.19.84.46,1.71,1.11s1.38,1.41,1.55,1.33-.13-1.1-1.15-1.86S78,429.14,78,429.31Z" style="fill:#263238"></path><path d="M81.33,425.94c0,.07.53.58,1.65,1.08a8.87,8.87,0,0,0,2.06.6,8.55,8.55,0,0,0,1.27.12,2.54,2.54,0,0,0,.75-.06.82.82,0,0,0,.63-.8,1.05,1.05,0,0,0-.45-.83,3.16,3.16,0,0,0-.68-.32,7.55,7.55,0,0,0-1.24-.32,6.83,6.83,0,0,0-2.17,0c-1.22.2-1.88.62-1.84.69s.74-.15,1.89-.23a8.53,8.53,0,0,1,2,.14,8.44,8.44,0,0,1,1.13.33c.4.14.7.33.69.55s0,.1-.16.16a2.24,2.24,0,0,1-.55,0,9.14,9.14,0,0,1-1.19-.08,10.26,10.26,0,0,1-2-.44A15.85,15.85,0,0,0,81.33,425.94Z" style="fill:#263238"></path><path d="M81.39,426.31c0,.06.74-.3,1.48-1.3a6.5,6.5,0,0,0,1-1.94,7,7,0,0,0,.24-1.27,1.64,1.64,0,0,0-.5-1.52.93.93,0,0,0-1,0,2.49,2.49,0,0,0-.56.49,4,4,0,0,0-.73,1.1,4.46,4.46,0,0,0-.42,2.16c.08,1.27.62,1.9.67,1.85a16.23,16.23,0,0,1-.2-1.86,4.6,4.6,0,0,1,.5-1.88,4.34,4.34,0,0,1,.65-.93c.28-.31.6-.5.71-.38a1.16,1.16,0,0,1,.22.91,6.56,6.56,0,0,1-1,3C81.89,425.74,81.32,426.23,81.39,426.31Z" style="fill:#263238"></path><path d="M200.29,324.33H148.88a28.32,28.32,0,0,0-24.08,13.42l-24,38.79,28.74,17.39,25.67-33.65,25.12.3,55.88-34.89Z" style="fill:#263238"></path><path d="M129.52,393.93a4.35,4.35,0,0,1-.55-.29l-1.56-.91-5.9-3.49-20.85-12.5-.2-.12.13-.2c4.56-7.38,9.7-16.07,15.43-25.13,4.66-7.36,9.34-14.24,14-20.2a11.57,11.57,0,0,1,4.41-3.4,26.21,26.21,0,0,1,4.94-1.73,59,59,0,0,1,9.24-1.46,125.21,125.21,0,0,1,13.53-.33c1.59,0,2.83.1,3.67.15l1,.06.32,0h-1.28l-3.68-.05c-3.18,0-7.81,0-13.48.5a58.86,58.86,0,0,0-9.17,1.51,25.33,25.33,0,0,0-4.85,1.72,11.15,11.15,0,0,0-4.23,3.28c-4.61,6-9.27,12.83-13.92,20.19-5.73,9.05-10.88,17.72-15.48,25.09l-.08-.32L121.65,389l5.83,3.6,1.53,1A2.61,2.61,0,0,1,129.52,393.93Z" style="fill:#455a64"></path><path d="M107.47,380.4c.12.08-4.44,8.22-10.18,18.18s-10.52,18-10.64,17.92,4.43-8.21,10.18-18.18S107.35,380.33,107.47,380.4Z" style="fill:#eb996e"></path><path d="M276.81,263.19a2.87,2.87,0,0,1,.19.36l.52,1.09c.45,1,1.1,2.38,1.94,4.18.41.91.88,1.93,1.39,3s.93,2.37,1.45,3.69,1.06,2.75,1.64,4.25,1.13,3.13,1.67,4.83,1.11,3.5,1.71,5.36c.31.93.56,1.9.81,2.88s.51,2,.77,3l.8,3.11c.14.53.27,1.06.41,1.6s.22,1.09.34,1.64q.66,3.3,1.36,6.79A218.47,218.47,0,0,1,295,339.65a259.66,259.66,0,0,1-1.21,30.79c-.57,4.7-1,9.18-1.75,13.34-.34,2.08-.62,4.09-1,6s-.72,3.77-1.06,5.53c-.64,3.52-1.42,6.67-2,9.44l-.89,3.86c-.32,1.18-.6,2.26-.86,3.23-.52,1.91-.92,3.4-1.2,4.45l-.33,1.15a2.71,2.71,0,0,1-.13.39,2.38,2.38,0,0,1,.08-.4q.1-.44.27-1.17c.26-1,.64-2.55,1.11-4.47.25-1,.52-2.06.82-3.23s.54-2.49.85-3.87c.6-2.78,1.36-5.93,2-9.45.32-1.76.67-3.61,1-5.52s.61-3.94.93-6c.7-4.15,1.14-8.62,1.7-13.32a265.54,265.54,0,0,0,1.17-30.73,221,221,0,0,0-3.1-30.57c-.45-2.32-.9-4.58-1.33-6.78l-.33-1.63c-.13-.54-.27-1.07-.4-1.59l-.79-3.11c-.25-1-.51-2-.76-3s-.48-2-.79-2.87l-1.67-5.36c-.53-1.71-1-3.34-1.63-4.83s-1.1-2.93-1.6-4.26-.93-2.59-1.41-3.7l-1.35-3.05c-.79-1.81-1.41-3.23-1.85-4.22-.2-.47-.35-.83-.47-1.1A2,2,0,0,1,276.81,263.19Z" style="fill:#263238"></path><path d="M146.18,394.32a22,22,0,0,1,0,3.14c0,1.94-.08,4.62,0,7.57s.27,5.62.43,7.56a24.12,24.12,0,0,1,.2,3.13,15.56,15.56,0,0,1-.56-3.1,77,77,0,0,1-.43-15.17A15.63,15.63,0,0,1,146.18,394.32Z" style="fill:#263238"></path><polygon points="191.32 276.66 181.14 311.49 143.47 315.53 143.47 322.22 198.83 322.99 206.37 277.63 191.32 276.66" style="fill:#ffbe9d"></polygon><path d="M263.72,253.82c-4.45-10.21-17-13.71-23.72-13.73-9.33,0-8.49-.59-17.66,1.06l-1.21,0c-27.87-1.13-31.08,37.16-31.08,37.16l12.71,1h0l-3.36,26.38-9.73,18.67,53.53-.09,3-43.59L270,280S267.83,263.26,263.72,253.82Z" style="fill:#5AA0D0"></path><path d="M204.3,262.1c.14,0-.8,9.31-2.1,20.76s-2.48,20.72-2.62,20.71.8-9.32,2.1-20.77S204.16,262.08,204.3,262.1Z" style="fill:#263238"></path><path d="M242.77,240a1.62,1.62,0,0,1,.07.47c0,.32.06.78.07,1.37a15.7,15.7,0,0,1-.71,5,14.67,14.67,0,0,1-3.67,6.5,10.44,10.44,0,0,1-3.75,2.43,14.51,14.51,0,0,1-4.72.78,24,24,0,0,1-4.75-.34,9.57,9.57,0,0,1-4.12-1.74,11.32,11.32,0,0,1-3.9-6.33,17,17,0,0,1-.54-5c0-.59.07-1.05.1-1.36a1.8,1.8,0,0,1,.08-.47s0,.66,0,1.84a18.93,18.93,0,0,0,.69,4.91,11.12,11.12,0,0,0,3.84,6.05,9.17,9.17,0,0,0,3.92,1.62,25.17,25.17,0,0,0,4.65.32,14.09,14.09,0,0,0,4.55-.74,10.1,10.1,0,0,0,3.59-2.29,14.53,14.53,0,0,0,3.66-6.27,16.75,16.75,0,0,0,.85-4.88C242.74,240.64,242.73,240,242.77,240Z" style="fill:#263238"></path><g style="opacity:0.2"><path d="M245.22,262.1c-2.29,10.91-5.26,22.13-7.55,33-.48,2.32-1,4.72-2.42,6.62a15.46,15.46,0,0,1-3.25,3c-4.5,3.37-9.25,6.54-14.53,8.46a130.32,130.32,0,0,0,22.61-3.93,4.71,4.71,0,0,0,4.42-5c1.64-14,1.17-28.11.72-42.19"></path></g><path d="M171.25,310.66l16.6-2,11.69,7.67,44.73-10.72,1.3-24.95,20.08-.5-.47,29.29a17,17,0,0,1-17.46,16.63l-65.51-1.81-2.78-5.58-14.05-.41Z" style="fill:#ffbe9d"></path><path d="M244.27,305.61a5.12,5.12,0,0,1-.85.26l-2.43.63-9,2.24-29.66,7.18-2.76.67-.11,0-.09-.06-11.68-7.69.16,0-16.61,1.92.11-.06L167,316.33l-1.18,1.46a3.74,3.74,0,0,1-.43.49,3.24,3.24,0,0,1,.36-.54l1.11-1.52,4.27-5.66,0-.05h.07l16.59-2.07h.08l.08,0,11.7,7.66-.2,0,2.76-.66,29.69-7,9-2.07,2.46-.54A7.1,7.1,0,0,1,244.27,305.61Z" style="fill:#eb996e"></path><path d="M180.88,315.42a40.58,40.58,0,0,1-6.44.26h-1.18l.16-.06a29.38,29.38,0,0,1-4.18,3.22,30.45,30.45,0,0,1,3.85-3.61l.07-.06h1.28A39.2,39.2,0,0,1,180.88,315.42Z" style="fill:#eb996e"></path><path d="M252.08,309.79a9.73,9.73,0,0,0-7.73-4.87,2.67,2.67,0,0,1,1.44-.11,7.53,7.53,0,0,1,3.31,1.13,7.7,7.7,0,0,1,2.46,2.5C252,309.22,252.14,309.77,252.08,309.79Z" style="fill:#eb996e"></path><path d="M270.41,280.16a11.69,11.69,0,0,1-1.79.14l-4.89.18c-4.12.13-9.83.27-16.13.4l-2,0h-.25v-.25c-.23-5.85-.13-11.05,0-14.79.06-1.87.13-3.37.2-4.41a10.62,10.62,0,0,1,.14-1.6,9.19,9.19,0,0,1,.05,1.61c0,1.12,0,2.6,0,4.41,0,3.73-.06,8.93.17,14.75l-.26-.24,2,0c6.3-.12,12-.21,16.14-.24h4.89A12,12,0,0,1,270.41,280.16Z" style="fill:#263238"></path><path d="M289.25,346.89a50.49,50.49,0,0,1-5.44-4.78,52.06,52.06,0,0,1-5.08-5.16,49.4,49.4,0,0,1,5.44,4.78A50.73,50.73,0,0,1,289.25,346.89Z" style="fill:#fafafa"></path><path d="M276.43,398a11.42,11.42,0,0,1-2.08,1.3c-1.3.76-3.1,1.8-5.07,3s-3.71,2.33-5,3.14a13,13,0,0,1-2.1,1.26,10.26,10.26,0,0,1,1.89-1.56c1.22-.9,3-2.08,4.92-3.29s3.81-2.2,5.17-2.87A10.75,10.75,0,0,1,276.43,398Z" style="fill:#fafafa"></path><path d="M299.66,292a36.79,36.79,0,0,1-3.89-5,38.19,38.19,0,0,1-3.48-5.27A76.79,76.79,0,0,1,299.66,292Z" style="fill:#fafafa"></path><path d="M304.15,305.09A67,67,0,0,1,299,315.64a67,67,0,0,1,5.12-10.55Z" style="fill:#fafafa"></path><path d="M307.81,347a77.67,77.67,0,0,1-4.25-7.87,79.68,79.68,0,0,1-3.79-8.11,75.38,75.38,0,0,1,4.25,7.87A76.09,76.09,0,0,1,307.81,347Z" style="fill:#fafafa"></path><path d="M307.32,365.51a53.29,53.29,0,0,1-4,6.27,54.09,54.09,0,0,1-4.48,6,107.86,107.86,0,0,1,8.52-12.24Z" style="fill:#fafafa"></path><path d="M301.29,404.55a15.86,15.86,0,0,1-2.52,3.07,15.43,15.43,0,0,1-2.9,2.7,14.8,14.8,0,0,1,2.52-3.06A15,15,0,0,1,301.29,404.55Z" style="fill:#fafafa"></path><path d="M92.88,357.87a66.69,66.69,0,0,1,2.22-8.05,66.45,66.45,0,0,1,2.73-7.9A68.57,68.57,0,0,1,95.6,350,66.23,66.23,0,0,1,92.88,357.87Z" style="fill:#fafafa"></path><path d="M111.22,331.6c0,.15-2.35-.2-5.23-.1s-5.17.59-5.21.44a13.37,13.37,0,0,1,5.19-1A13.48,13.48,0,0,1,111.22,331.6Z" style="fill:#fafafa"></path><path d="M243.25,207.12l-2.52,35.72a11.13,11.13,0,0,1-11.1,10.35h0a11.13,11.13,0,0,1-11.11-11.87c.22-3.4.42-6.18.42-6.18s-8.64-1.34-8.75-10c-.1-7.71,2-30.54,2.46-35.37h15.6A16,16,0,0,1,243.25,207.12Z" style="fill:#ffbe9d"></path><path d="M218.93,235a20.13,20.13,0,0,0,11.27-3.21s-2.67,6.22-11.29,5.45Z" style="fill:#eb996e"></path><path d="M214,210.52a1.23,1.23,0,0,0,1.19,1.24,1.19,1.19,0,0,0,1.28-1.11,1.24,1.24,0,0,0-1.19-1.25A1.2,1.2,0,0,0,214,210.52Z" style="fill:#263238"></path><path d="M213.22,208.82c.15.16,1.09-.53,2.41-.53s2.31.67,2.45.51-.09-.37-.51-.68a3.48,3.48,0,0,0-2-.6,3.28,3.28,0,0,0-1.92.62C213.28,208.46,213.14,208.75,213.22,208.82Z" style="fill:#263238"></path><path d="M226.5,210.88a1.22,1.22,0,0,0,1.19,1.24A1.17,1.17,0,0,0,229,211a1.24,1.24,0,0,0-1.19-1.25A1.18,1.18,0,0,0,226.5,210.88Z" style="fill:#263238"></path><path d="M226.27,209.07c.16.16,1.09-.53,2.42-.53s2.3.67,2.45.5-.09-.36-.51-.67a3.4,3.4,0,0,0-2-.6,3.22,3.22,0,0,0-1.92.62C226.34,208.7,226.2,209,226.27,209.07Z" style="fill:#263238"></path><path d="M221.45,218.92a8.39,8.39,0,0,0-2.15-.39c-.34,0-.66-.1-.72-.34a1.68,1.68,0,0,1,.23-1c.31-.82.65-1.68,1-2.58a44.63,44.63,0,0,0,2.25-6.76,44.2,44.2,0,0,0-2.79,6.56c-.34.91-.66,1.77-1,2.6a2,2,0,0,0-.18,1.33.83.83,0,0,0,.56.49,2.17,2.17,0,0,0,.58.08A8.71,8.71,0,0,0,221.45,218.92Z" style="fill:#263238"></path><path d="M225.36,219.84c-.21,0-.22,1.43-1.45,2.45s-2.77.86-2.78,1.07.34.28,1,.29a3.55,3.55,0,0,0,2.32-.8,3.17,3.17,0,0,0,1.13-2.06C225.62,220.19,225.46,219.83,225.36,219.84Z" style="fill:#263238"></path><path d="M225.93,203.86c.13.36,1.46.19,3,.38s2.82.61,3,.29c.1-.16-.12-.5-.63-.85a5.33,5.33,0,0,0-4.6-.51C226.16,203.41,225.88,203.69,225.93,203.86Z" style="fill:#263238"></path><path d="M213.71,205c.23.31,1.14,0,2.24,0s2,.2,2.25-.11c.1-.16,0-.46-.46-.75a3.16,3.16,0,0,0-1.83-.49,3.07,3.07,0,0,0-1.79.61C213.73,204.52,213.6,204.83,213.71,205Z" style="fill:#263238"></path><path d="M240.34,213.61c.15-.06,5.94-1.76,5.75,4.15S240,222.27,240,222.1,240.34,213.61,240.34,213.61Z" style="fill:#ffbe9d"></path><path d="M241.88,219.91s.1.08.27.16a1,1,0,0,0,.77.05,2.56,2.56,0,0,0,1.25-2.25,3.27,3.27,0,0,0-.24-1.49,1.18,1.18,0,0,0-.75-.81.52.52,0,0,0-.61.26c-.09.16,0,.28-.09.29s-.12-.1-.06-.34a.63.63,0,0,1,.24-.37.79.79,0,0,1,.57-.13,1.45,1.45,0,0,1,1.05.95,3.47,3.47,0,0,1,.3,1.66A2.67,2.67,0,0,1,243,220.4a1.15,1.15,0,0,1-.94-.19C241.89,220.06,241.86,219.92,241.88,219.91Z" style="fill:#eb996e"></path><path d="M243.63,213.41a3.11,3.11,0,0,0-2.85,1.46c-.38.84-.47,1.8-.85,2.64a2.09,2.09,0,0,1-2.15,1.4,1.82,1.82,0,0,1-1.23-1.35,4.91,4.91,0,0,1,0-1.91c.35-2.76.93-5.49,1-8.27a14.22,14.22,0,0,0-1.74-8,7.75,7.75,0,0,0-6.92-3.88c-1.83.14-3.52,1.1-5.34,1.36a7.21,7.21,0,0,1-6-2c-.2-.19-1.12-.8-1.12-.8a3.38,3.38,0,0,1,.62-1.83c3.62-3.35,10.14-4.28,14.92-3.08a17.23,17.23,0,0,1,11.32,9.06c2.06,4.48,1.45,10.72.32,15.25" style="fill:#263238"></path><path d="M243.46,212.9c.32-2.89,1.76-5.53,2.51-8.35s.58-6.25-1.67-8.1c-.77-.63-1.72-1-2.44-1.71a12.57,12.57,0,0,1-1.68-2.48,10.28,10.28,0,0,0-7.65-4.66c-2.13-.19-4.28.31-6.41.17-3.38-.21-6.58-2-10-1.84a4,4,0,0,0-3,1.25,2,2,0,0,0,.42,2.91,1.71,1.71,0,0,0-2.62-.08,2.59,2.59,0,0,0-.18,2.85,5.57,5.57,0,0,0,2.18,2.07,14.16,14.16,0,0,0,9.65,1.78l6.38-3.48,7.22,1.59,6.87,4.59L240,212.12Z" style="fill:#263238"></path><path d="M96.11,283.18,117,324.33h66L180.39,319l-19.12-.56-15.58-34.7a6,6,0,0,0-5.51-3.56H98A2.1,2.1,0,0,0,96.11,283.18Z" style="fill:#e0e0e0"></path><circle cx="127.19" cy="301.39" r="2.7" style="fill:#263238"></circle><path d="M272.52,282.33c-.16,11.53-7.18,22.15-16.35,29.15s-20.29,10.89-31.37,14.08-22.41,5.82-32.84,10.76c-14.43,6.83-27.8,16.2-36,29.93S144.94,398,145.85,414l122.6-12.26L275.16,332Z" style="fill:#455a64"></path><path d="M224.8,325.56l-.27.08-.78.19c-.69.16-1.71.36-3,.68-2.61.61-6.38,1.56-11,3A146.44,146.44,0,0,0,194,335.36a95.12,95.12,0,0,0-17.88,10.17,89.14,89.14,0,0,0-8,7,80.5,80.5,0,0,0-6.71,7.32,69.32,69.32,0,0,0-9,14.19,59.88,59.88,0,0,0-3.79,10.68c-.37,1.29-.51,2.33-.69,3-.07.32-.13.57-.18.78s-.07.27-.07.27a1.17,1.17,0,0,1,0-.28c0-.21.08-.47.13-.79.14-.7.25-1.74.59-3A56,56,0,0,1,152,373.9,67.66,67.66,0,0,1,161,359.56a81.38,81.38,0,0,1,6.73-7.39,89.12,89.12,0,0,1,8.09-7.06,93.87,93.87,0,0,1,18-10.19,141.91,141.91,0,0,1,15.88-5.79c4.61-1.37,8.4-2.27,11-2.82,1.31-.29,2.34-.45,3-.59l.79-.13A1,1,0,0,1,224.8,325.56Z" style="fill:#263238"></path><path d="M251.1,384.1a97.21,97.21,0,0,1-8.5,5.2,94.09,94.09,0,0,1-8.76,4.75,93.44,93.44,0,0,1,8.5-5.2A97.13,97.13,0,0,1,251.1,384.1Z" style="fill:#fafafa"></path><path d="M195.78,387.62a16.29,16.29,0,0,1-2-1.84c-1.2-1.17-2.86-2.79-4.71-4.55s-3.57-3.33-4.8-4.46a15,15,0,0,1-2-1.91,13.42,13.42,0,0,1,2.19,1.63c1.3,1.06,3.05,2.59,4.92,4.36s3.48,3.43,4.61,4.67A11.87,11.87,0,0,1,195.78,387.62Z" style="fill:#fafafa"></path><path d="M221.36,353.41a55.56,55.56,0,0,1-1.69,7.41,57,57,0,0,1-2.2,7.29,55.87,55.87,0,0,1,1.69-7.42A57.81,57.81,0,0,1,221.36,353.41Z" style="fill:#fafafa"></path><path d="M270.34,361.94a70.14,70.14,0,0,1-7.95-3.25,69.32,69.32,0,0,1-7.75-3.73,73,73,0,0,1,8,3.25A71.83,71.83,0,0,1,270.34,361.94Z" style="fill:#fafafa"></path><path d="M214,407.19a39.7,39.7,0,0,1-1.29-6.37,42.12,42.12,0,0,1-.77-6.46,39.7,39.7,0,0,1,1.29,6.37A42.12,42.12,0,0,1,214,407.19Z" style="fill:#fafafa"></path><path d="M171.36,404.36a70.11,70.11,0,0,1-5.81-6.22,66.6,66.6,0,0,1-5.41-6.56,69.22,69.22,0,0,1,5.8,6.22A69.11,69.11,0,0,1,171.36,404.36Z" style="fill:#fafafa"></path><path d="M205.38,341.92a48,48,0,0,1-6.28,3.43,49.15,49.15,0,0,1-6.51,3,48,48,0,0,1,6.28-3.43A49.15,49.15,0,0,1,205.38,341.92Z" style="fill:#fafafa"></path><path d="M254,333.75a58.59,58.59,0,0,1-7.67.25,57.68,57.68,0,0,1-7.68-.26,55.72,55.72,0,0,1,7.68-.26A54.5,54.5,0,0,1,254,333.75Z" style="fill:#fafafa"></path><path d="M273.48,300a23.55,23.55,0,0,1-2.11,5.81,24,24,0,0,1-3.1,5.34c-.13-.08,1.2-2.49,2.63-5.56S273.33,300,273.48,300Z" style="fill:#fafafa"></path></g><g id="freepik--Plant--inject-567"><rect x="360.04" y="390.94" width="73.1" height="10.04" style="fill:#263238"></rect><path d="M433.26,401.11H359.91V390.82h73.35Zm-73.1-.25H433v-9.79H360.16Z" style="fill:#263238"></path><polygon points="366.81 397.65 377.34 449.55 416.27 449.55 426.44 400.99 366.81 397.65" style="fill:#263238"></polygon><polygon points="366.81 444.64 372.43 452.36 419.75 452.36 426.44 444.64 366.81 444.64" style="fill:#455a64"></polygon><path d="M393.84,399.16c-.14,0-.33-24.05-.41-53.7s0-53.71.11-53.71.33,24,.41,53.71S394,399.16,393.84,399.16Z" style="fill:#263238"></path><path d="M410.12,339a2.29,2.29,0,0,1-.19.56l-.65,1.56-.48,1.12c-.15.42-.31.88-.49,1.36s-.36,1-.56,1.57-.35,1.16-.54,1.79a71.67,71.67,0,0,0-2,8.95A109,109,0,0,0,404,367.08a152.08,152.08,0,0,0,.58,20.44c.23,2.61.47,4.72.64,6.18.08.68.14,1.24.19,1.68a2.21,2.21,0,0,1,0,.59,2.65,2.65,0,0,1-.13-.58c-.08-.44-.17-1-.29-1.67-.23-1.45-.52-3.55-.81-6.16a135.19,135.19,0,0,1-.73-20.51,101.92,101.92,0,0,1,1.18-11.24,67.08,67.08,0,0,1,2.17-9c.2-.63.37-1.23.58-1.79l.6-1.56c.19-.48.36-.93.53-1.35s.36-.78.52-1.11l.74-1.52A4.09,4.09,0,0,1,410.12,339Z" style="fill:#263238"></path><path d="M408.26,319.53a6.88,6.88,0,0,1-.24.8l-.76,2.23c-.17.49-.35,1-.56,1.61l-.59,1.95c-.42,1.39-.92,3-1.36,4.75-.23.89-.48,1.81-.73,2.78l-.69,3c-.51,2.09-.88,4.37-1.35,6.74-.8,4.78-1.51,10.06-2,15.63s-.67,10.9-.74,15.74.05,9.21.25,12.87c.06,1.84.18,3.49.28,4.94s.17,2.71.26,3.73.14,1.77.18,2.35a4.34,4.34,0,0,1,0,.83,5,5,0,0,1-.13-.81c-.07-.59-.16-1.37-.28-2.35s-.24-2.27-.35-3.73-.27-3.1-.36-4.94c-.24-3.66-.34-8-.36-12.89s.24-10.2.7-15.79,1.22-10.88,2.05-15.66c.49-2.38.87-4.66,1.4-6.76l.72-3c.26-1,.52-1.89.77-2.78.46-1.78,1-3.36,1.44-4.74.22-.69.43-1.34.63-1.93l.6-1.6.85-2.21A5.79,5.79,0,0,1,408.26,319.53Z" style="fill:#263238"></path><path d="M389.22,403.42a.85.85,0,0,1,0-.29c0-.21,0-.48-.07-.82-.05-.77-.13-1.83-.22-3.19-.17-2.8-.42-6.79-.73-11.71-.64-9.89-1.55-23.55-3.22-38.57-.85-7.51-1.83-14.65-2.86-21.12-.54-3.22-1-6.3-1.6-9.15s-1.07-5.53-1.58-7.95-1-4.6-1.44-6.52-.84-3.57-1.18-4.91-.57-2.36-.76-3.1q-.11-.49-.18-.81a1.17,1.17,0,0,1,0-.28,1.36,1.36,0,0,1,.1.27c.06.2.14.47.23.79.21.74.5,1.77.86,3.08s.81,3,1.26,4.89,1,4.09,1.52,6.51,1.11,5.08,1.65,7.95,1.09,5.93,1.65,9.16c1.05,6.47,2.05,13.61,2.9,21.13,1.67,15,2.53,28.71,3.07,38.61.27,4.95.45,8.95.56,11.72.05,1.36.09,2.42.12,3.19,0,.34,0,.62,0,.83A1.29,1.29,0,0,1,389.22,403.42Z" style="fill:#263238"></path><path d="M393.24,303.31c-.31-3.41-3.76-6-7.18-6s-6.61,2-8.7,4.73a27.19,27.19,0,0,0-4.19,9.3c-2.3,8-3.56,16.46-2.58,24.75s4.35,16.46,10.3,22.31c1,1,2.22,1.91,3.55,1.63a4.28,4.28,0,0,0,1.87-1.16,55.39,55.39,0,0,0,18-42.12c-.1-3.15-.51-6.43-2.26-9.06s-5.81-5.42-8.79-4.36" style="fill:#5AA0D0"></path><path d="M367.7,276q-2.42,4.37-4.82,8.73c-.11.2-.26.43-.49.45s-.45-.22-.59-.43l-12.74-19.56,2.94-1.66Z" style="fill:#5AA0D0"></path><g style="opacity:0.2"><path d="M367.7,276q-2.42,4.37-4.82,8.73c-.11.2-.26.43-.49.45s-.45-.22-.59-.43l-12.74-19.56,2.94-1.66Z"></path></g><path d="M393.54,291.75,350.08,266.1A2.05,2.05,0,0,1,349,265c-.17-.64.31-1.26.78-1.74A29.93,29.93,0,0,1,373,254.17a26.52,26.52,0,0,1,21,13.06c4.19,7.49,4.33,17.4-.48,24.52" style="fill:#5AA0D0"></path><path d="M356.34,257.92a2.06,2.06,0,0,1,.57-.08c.38,0,.93-.08,1.65-.07a32.16,32.16,0,0,1,6,.47,34.84,34.84,0,0,1,24.67,17.17,35,35,0,0,1,3.45,8.29,33,33,0,0,1,1.08,5.95c.08.71.07,1.27.09,1.64a2.46,2.46,0,0,1,0,.57s-.1-.78-.27-2.19a36.89,36.89,0,0,0-1.23-5.87,35.5,35.5,0,0,0-27.84-25.19,37.66,37.66,0,0,0-6-.64C357.13,257.94,356.35,258,356.34,257.92Z" style="fill:#263238"></path><path d="M387.66,274.05a11.25,11.25,0,0,1-2.2,1c-1.38.55-3.32,1.25-5.48,1.94s-4.15,1.23-5.6,1.58A9.77,9.77,0,0,1,372,279a12.11,12.11,0,0,1,2.27-.8l5.54-1.73,5.52-1.78A11.11,11.11,0,0,1,387.66,274.05Z" style="fill:#263238"></path><path d="M380.81,255.66a30.11,30.11,0,0,1,.25,9.72,30.3,30.3,0,0,1-.25-4.86A31.28,31.28,0,0,1,380.81,255.66Z" style="fill:#263238"></path><path d="M349.7,265.62a18.56,18.56,0,0,1,3.16-1.12c2-.6,4.72-1.37,7.79-2.11s5.86-1.31,7.9-1.67a19.51,19.51,0,0,1,3.31-.44,23.65,23.65,0,0,1-3.24.81c-2,.44-4.79,1.07-7.85,1.8s-5.82,1.45-7.81,2A23.53,23.53,0,0,1,349.7,265.62Z" style="fill:#263238"></path><path d="M373.5,295.24c-3.74-2.83-7.69-3.39-12.38-3.2a37.71,37.71,0,0,0-13.54,3.49c-7.33,3.21-14.22,7.94-18.6,14.64s-5.9,15.56-2.62,22.86a3.28,3.28,0,0,0,1.48,1.8,3.57,3.57,0,0,0,2.46-.19c8.33-2.72,16.72-5.47,24.39-9.72s14.64-10.18,18.75-17.92a15.33,15.33,0,0,0,2-5.95,7.41,7.41,0,0,0-1.91-5.81" style="fill:#5AA0D0"></path><path d="M373.57,294.36a2.83,2.83,0,0,1-.6.25l-1.74.6-1.27.42c-.45.16-.94.37-1.47.58-1.06.42-2.28.85-3.57,1.47l-2.05.93c-.7.33-1.41.73-2.16,1.12-1.51.74-3,1.69-4.67,2.65a73.7,73.7,0,0,0-18.38,16.17c-1.16,1.5-2.3,2.89-3.23,4.3-.47.69-1,1.34-1.38,2l-1.18,1.91c-.78,1.2-1.36,2.36-1.92,3.35-.27.5-.54,1-.76,1.39s-.4.84-.58,1.2c-.33.68-.61,1.23-.82,1.66a2.61,2.61,0,0,1-.32.56,5.43,5.43,0,0,1,.23-.6l.73-1.7q.24-.57.54-1.23c.21-.44.46-.91.72-1.41.54-1,1.1-2.19,1.86-3.41l1.17-1.94c.4-.67.89-1.33,1.36-2,.92-1.42,2-2.84,3.2-4.35A71.27,71.27,0,0,1,355.79,302c1.65-1,3.19-1.9,4.72-2.63.76-.37,1.48-.77,2.19-1.09l2.07-.9c1.31-.61,2.55-1,3.62-1.42.53-.19,1-.38,1.49-.53l1.29-.38,1.78-.51A4.57,4.57,0,0,1,373.57,294.36Z" style="fill:#263238"></path><path d="M344.37,310.18a91.81,91.81,0,0,1-9.09,2.92,87.08,87.08,0,0,1-9.24,2.43,89.87,89.87,0,0,1,9.1-2.93A85.65,85.65,0,0,1,344.37,310.18Z" style="fill:#263238"></path><path d="M344,330.24a14.78,14.78,0,0,1-.2-2.83c-.05-1.76-.06-4.18,0-6.85s.22-5.09.36-6.84a14.75,14.75,0,0,1,.36-2.81,16.8,16.8,0,0,1,0,2.84c-.06,1.91-.13,4.25-.21,6.83s-.12,4.91-.17,6.83A17,17,0,0,1,344,330.24Z" style="fill:#263238"></path><path d="M361.19,321.48c-.15,0-.6-4.91-1-11s-.65-11-.51-11,.61,4.91,1,11S361.33,321.47,361.19,321.48Z" style="fill:#263238"></path><path d="M339.79,299a16.2,16.2,0,0,1,2.92-.08c1.79,0,4.27.06,7,.15s5.22.2,7,.31a16.92,16.92,0,0,1,2.9.28,16.5,16.5,0,0,1-2.91.09c-1.8,0-4.28-.07-7-.16s-5.23-.2-7-.31A14.72,14.72,0,0,1,339.79,299Z" style="fill:#263238"></path><path d="M382.75,360.72a4.25,4.25,0,0,1-.06-.59c0-.45,0-1-.07-1.71-.07-1.48-.08-3.63,0-6.28s.23-5.82.54-9.31.83-7.33,1.53-11.32,1.58-7.76,2.47-11.16,1.84-6.41,2.71-8.92,1.62-4.52,2.2-5.89c.27-.64.48-1.16.66-1.58a2.14,2.14,0,0,1,.26-.53,2.21,2.21,0,0,1-.17.57c-.14.42-.33,1-.56,1.61-.52,1.39-1.22,3.42-2,5.94s-1.71,5.54-2.59,8.93-1.71,7.14-2.43,11.12-1.2,7.79-1.56,11.27-.56,6.63-.65,9.28-.14,4.79-.14,6.27c0,.7,0,1.26,0,1.71A2.08,2.08,0,0,1,382.75,360.72Z" style="fill:#263238"></path><path d="M385.05,331.07a12.11,12.11,0,0,1-1.74,1.91c-1.12,1.12-2.72,2.62-4.54,4.22s-3.52,3-4.78,3.95a12.47,12.47,0,0,1-2.11,1.47,12.27,12.27,0,0,1,1.88-1.75l4.67-4.06,4.63-4.1A14.16,14.16,0,0,1,385.05,331.07Z" style="fill:#263238"></path><path d="M398.8,342.15A20.91,20.91,0,0,1,397,339.6l-4.3-6.27-4.38-6.21a19.49,19.49,0,0,1-1.76-2.62,17.18,17.18,0,0,1,2.05,2.4c1.21,1.53,2.82,3.69,4.52,6.13s3.16,4.7,4.18,6.37A18.23,18.23,0,0,1,398.8,342.15Z" style="fill:#263238"></path><path d="M391.6,307.31c.07.12-4.49,3.19-10.21,6.87s-10.41,6.55-10.49,6.43,4.5-3.2,10.21-6.87S391.52,307.18,391.6,307.31Z" style="fill:#263238"></path><path d="M404.48,321.21a83.66,83.66,0,0,1-6.91-6.38,87.42,87.42,0,0,1-6.55-6.76,81.81,81.81,0,0,1,6.91,6.38A85.35,85.35,0,0,1,404.48,321.21Z" style="fill:#263238"></path><path d="M407.72,320.93l3.92-.32a19.45,19.45,0,0,0,7.93-2.43,31.78,31.78,0,0,1,3.69-1.85c4.85-1.95,10.26-1.6,15.48-1.86a64,64,0,0,0,24.62-6.3,2.37,2.37,0,0,0,1.08-1c.8-1.47-.69-2.78-2-3.57-6.61-4.07-13.34-8.2-20.83-10.22s-16-1.68-22.4,2.72c-7.5,5.17-10.24,15.78-11.51,24.8" style="fill:#5AA0D0"></path><path d="M464.52,306.72l-.66-.31-1.86-1c-1.61-.85-3.93-2.1-6.87-3.5a62.79,62.79,0,0,0-10.63-4.1,35.12,35.12,0,0,0-13.77-1.12,23.58,23.58,0,0,0-12.56,5.4,27.83,27.83,0,0,0-6.54,9.18c-1.38,2.94-2.23,5.44-2.85,7.15l-.7,2a3.43,3.43,0,0,1-.27.68,3.47,3.47,0,0,1,.17-.71c.16-.51.36-1.18.61-2a66.41,66.41,0,0,1,2.7-7.24,27.79,27.79,0,0,1,6.56-9.39,23.79,23.79,0,0,1,12.81-5.55,34.92,34.92,0,0,1,14,1.17,61.09,61.09,0,0,1,10.66,4.23c2.93,1.45,5.22,2.75,6.81,3.66l1.81,1.05A3.18,3.18,0,0,1,464.52,306.72Z" style="fill:#263238"></path><path d="M455.1,311.78c-.08.12-5.21-3.2-11.45-7.41s-11.25-7.73-11.17-7.85,5.21,3.2,11.46,7.41S455.18,311.66,455.1,311.78Z" style="fill:#263238"></path><path d="M450.18,296a19.34,19.34,0,0,1-8.09.74,24.48,24.48,0,0,1,4-.45A22.78,22.78,0,0,1,450.18,296Z" style="fill:#263238"></path><path d="M427.17,291.91a13.53,13.53,0,0,1-1.68,3.36,14,14,0,0,1-2.13,3.11A13.93,13.93,0,0,1,425,295,14.13,14.13,0,0,1,427.17,291.91Z" style="fill:#263238"></path><path d="M431.77,314.8a13.63,13.63,0,0,1-2.47-1.34c-1.48-.9-3.48-2.22-5.62-3.77s-4-3-5.39-4.1a15.74,15.74,0,0,1-2.13-1.83,15.06,15.06,0,0,1,2.36,1.54l5.46,4c2.14,1.55,4.1,2.91,5.52,3.88A17.22,17.22,0,0,1,431.77,314.8Z" style="fill:#263238"></path><path d="M413.5,337.6c-3.74-1-8.2,2.65-9,6.44s.66,7.67,2.32,11.17a57,57,0,0,0,15.47,20.24c6.7,5.34,15.09,8.75,23.66,8.71-1.58-7.35.42-15-.46-22.49A29.24,29.24,0,0,0,419.6,336c-2.39-.26-5.15-.64-6.1,1.57" style="fill:#5AA0D0"></path><path d="M446,384.16a2.83,2.83,0,0,1-.53-.25A8.9,8.9,0,0,1,444,383a14.59,14.59,0,0,1-3.7-4.94c-.59-1.16-1.26-2.42-1.91-3.81s-1.31-2.88-2-4.45a43.29,43.29,0,0,0-2.48-4.75,37.05,37.05,0,0,0-3.4-4.63c-2.56-3-5.31-5.61-7.69-8.1a52.71,52.71,0,0,1-5.87-7,25.33,25.33,0,0,1-2.86-5.47,13.15,13.15,0,0,1-.5-1.61,2.08,2.08,0,0,1-.12-.57c.05,0,.26.76.8,2.1a28.07,28.07,0,0,0,3,5.34,55.21,55.21,0,0,0,5.91,6.91c2.39,2.46,5.16,5.06,7.75,8.1a37.33,37.33,0,0,1,3.44,4.7,42.36,42.36,0,0,1,2.47,4.82c.7,1.57,1.35,3.07,2,4.47s1.28,2.66,1.85,3.82a15.26,15.26,0,0,0,3.5,5C445.26,383.76,446,384.11,446,384.16Z" style="fill:#263238"></path><path d="M426.62,378.05a11,11,0,0,1,.35-2.52c.29-1.54.77-3.65,1.42-6s1.34-4.36,1.9-5.82a10.83,10.83,0,0,1,1-2.33,13.39,13.39,0,0,1-.68,2.45c-.46,1.49-1.09,3.55-1.74,5.85s-1.18,4.38-1.56,5.89A12.81,12.81,0,0,1,426.62,378.05Z" style="fill:#263238"></path><path d="M445.26,360a15,15,0,0,1-2.63-.61c-1.62-.42-3.84-1-6.32-1.55s-4.74-1-6.37-1.3a14.24,14.24,0,0,1-2.64-.59,14.29,14.29,0,0,1,2.7.22c1.65.22,3.93.6,6.43,1.16s4.71,1.2,6.3,1.71A12.08,12.08,0,0,1,445.26,360Z" style="fill:#263238"></path><path d="M412.74,365.26a14.75,14.75,0,0,1,.4-2.92c.33-1.78.86-4.24,1.56-6.92s1.44-5.08,2-6.8a14.44,14.44,0,0,1,1.07-2.74,18.69,18.69,0,0,1-.72,2.85c-.5,1.74-1.18,4.15-1.88,6.82s-1.28,5.11-1.7,6.87A19.06,19.06,0,0,1,412.74,365.26Z" style="fill:#263238"></path><path d="M436.68,344.3a101.53,101.53,0,0,1-10.43-.84c-5.75-.61-10.4-1.22-10.38-1.36a101.94,101.94,0,0,1,10.43.84C432.05,343.55,436.69,344.16,436.68,344.3Z" style="fill:#263238"></path><path d="M433.26,401c0,.14-16.42.26-36.67.26s-36.67-.12-36.67-.26,16.41-.26,36.67-.26S433.26,400.8,433.26,401Z" style="fill:#455a64"></path><path d="M421.83,422.08c0,.14-11.06.26-24.7.26s-24.71-.12-24.71-.26,11.06-.26,24.71-.26S421.83,421.93,421.83,422.08Z" style="fill:#455a64"></path><path d="M422.26,425.1c0,.14-11.06.26-24.7.26s-24.71-.12-24.71-.26,11.06-.26,24.71-.26S422.26,425,422.26,425.1Z" style="fill:#455a64"></path><path d="M422.26,419.59c0,.14-11.44.26-25.55.26s-25.56-.12-25.56-.26,11.44-.26,25.56-.26S422.26,419.44,422.26,419.59Z" style="fill:#455a64"></path></g></svg>