<svg xmlns="http://www.w3.org/2000/svg" viewBox="0 0 750 500"><g id="freepik--background-simple--inject-846"><path d="M204.62,87.79l1.89-3.1c15.88-26.17,44.6-41.95,74.88-40A79.74,79.74,0,0,1,293,46.24c27.52,5.9,51.48,26.71,61.41,53.37,5.83,15.68,7.47,33.74,18.55,46.18,14.42,16.2,38.9,16.71,60.43,16s50.58,1.06,64.93,17.32c9,10.19,21.22,22.94,21.19,46.31l-307.38.28C184.07,183.79,182.19,133.07,204.62,87.79Z" style="fill:#ebebeb"></path><circle cx="455.3" cy="88.92" r="37.48" style="fill:#ebebeb"></circle></g><g id="freepik--Plants--inject-846"><path d="M113.81,341.23l.43,0c-.88-13-7.4-26.9-12.13-39.08-4.87-12.53-9.43-25.39-20.5-33a762.11,762.11,0,0,1,32.2,72.12" style="fill:#455a64"></path><path d="M121.58,275.26s0,.05,0,.16l-.15.49-.62,1.85c-.13.4-.28.85-.45,1.33s-.31,1-.48,1.61c-.34,1.15-.76,2.45-1.13,3.92l-.6,2.3c-.21.79-.38,1.64-.58,2.5-.42,1.73-.76,3.6-1.14,5.56-.68,3.94-1.27,8.31-1.62,12.91s-.37,9-.28,13c.09,2,.14,3.9.3,5.67.07.89.11,1.75.2,2.57s.17,1.61.24,2.36c.14,1.51.36,2.86.51,4.05.08.6.16,1.15.23,1.66s.16,1,.23,1.39c.14.82.24,1.47.32,1.92,0,.21,0,.38.07.51a1.06,1.06,0,0,1,0,.17s-.84-3.66-1.57-9.68c-.08-.75-.17-1.54-.26-2.36s-.14-1.68-.22-2.57c-.16-1.78-.23-3.68-.32-5.68-.11-4-.06-8.42.26-13s1-9,1.64-12.93c.39-2,.73-3.84,1.17-5.57.2-.86.38-1.71.59-2.51l.63-2.29c.37-1.47.81-2.77,1.16-3.92.19-.57.35-1.11.51-1.6l.47-1.33c.29-.78.51-1.4.67-1.83l.17-.48Z" style="fill:#455a64"></path><rect x="109.45" y="273.52" width="22.29" height="6.64" rx="2.97" transform="translate(-178.63 317.4) rotate(-74.18)" style="fill:#f5f5f5"></rect><path d="M117.89,287.66s.19,0,.53.07a3.12,3.12,0,0,0,1.48-.27,2.89,2.89,0,0,0,1.54-1.72c.26-.9.54-1.95.87-3.1.64-2.31,1.4-5,2.25-8.08.43-1.51.88-3.11,1.34-4.76a2.86,2.86,0,0,0-.44-2.38,2.92,2.92,0,0,0-.94-.84,6.66,6.66,0,0,0-1.26-.43,2.89,2.89,0,0,0-2.44.44,3,3,0,0,0-.83.94,6.52,6.52,0,0,0-.41,1.2c-.47,1.65-.92,3.25-1.36,4.76l-2.31,8.06c-.17.58-.32,1.12-.47,1.64a4.75,4.75,0,0,0-.3,1.46,2.92,2.92,0,0,0,.93,2.11,3.06,3.06,0,0,0,1.32.72l.38.13c.08,0,.13,0,.12.05l-.13,0-.39-.09a3.1,3.1,0,0,1-1.37-.7,3,3,0,0,1-1-2.19,5.14,5.14,0,0,1,.28-1.51c.14-.52.29-1.07.45-1.64.65-2.3,1.41-5,2.26-8.07.43-1.52.88-3.12,1.34-4.77a6.22,6.22,0,0,1,.44-1.25,2.87,2.87,0,0,1,.9-1,3.11,3.11,0,0,1,2.68-.49,6.55,6.55,0,0,1,1.31.45,3.29,3.29,0,0,1,1,.92,3.13,3.13,0,0,1,.47,2.61l-1.35,4.76-2.32,8.06c-.33,1.15-.62,2.18-.91,3.1a3,3,0,0,1-1.64,1.77,2.83,2.83,0,0,1-1.52.22A2,2,0,0,1,117.89,287.66Z" style="fill:#263238"></path><path d="M116.61,341.19c-.41-10-.42-21.09,5.27-29.37,3.23-4.69,8.08-8.07,13.27-10.4a94,94,0,0,1,16.29-5.05c-6.16,8.63-20.12,8.73-26,17.54-1.75,2.61-2.57,5.72-3.36,8.76-1.64,6.3-3.09,12.27-4.73,18.56" style="fill:#455a64"></path><path d="M72.62,305.94h.14l.4,0c.35.05.87.09,1.53.22a36.27,36.27,0,0,1,5.5,1.38,39.32,39.32,0,0,1,7.66,3.5,43,43,0,0,1,4.1,2.82,41.2,41.2,0,0,1,4,3.6,36,36,0,0,1,3.4,4.13c.51.7,1,1.42,1.42,2.11s.85,1.41,1.22,2.11a42,42,0,0,1,3.31,7.74,35.84,35.84,0,0,1,1.31,5.52c.12.66.15,1.18.19,1.53l0,.4c0,.09,0,.14,0,.14s0-.05,0-.14l-.06-.39c-.06-.35-.11-.87-.25-1.52a39.81,39.81,0,0,0-1.38-5.48,43.44,43.44,0,0,0-3.35-7.68c-.37-.7-.8-1.38-1.23-2.09s-.9-1.4-1.41-2.09a35.48,35.48,0,0,0-3.38-4.1,37.31,37.31,0,0,0-3.92-3.58,42.42,42.42,0,0,0-4.06-2.81,39.88,39.88,0,0,0-7.59-3.54,40.68,40.68,0,0,0-5.46-1.46c-.66-.14-1.17-.19-1.52-.26l-.39-.07Z" style="fill:#455a64"></path><rect x="69.3" y="293.5" width="6.64" height="22.29" rx="2.97" transform="translate(-233.4 238.08) rotate(-64.32)" style="fill:#f5f5f5"></rect><path d="M82.82,309.16s.07-.17.16-.51a3.13,3.13,0,0,0,0-1.5,2.88,2.88,0,0,0-1.44-1.81c-.84-.42-1.83-.87-2.9-1.39l-7.57-3.6-4.46-2.14a2.88,2.88,0,0,0-2.42,0,2.94,2.94,0,0,0-1,.8,6.11,6.11,0,0,0-.64,1.16,2.84,2.84,0,0,0,0,2.48,2.72,2.72,0,0,0,.78,1,5.17,5.17,0,0,0,1.11.61l4.46,2.16,7.54,3.66,1.53.74a5.08,5.08,0,0,0,1.39.55,3,3,0,0,0,2.24-.56,3.1,3.1,0,0,0,.94-1.17l.19-.36c0-.08.06-.11.07-.11a.93.93,0,0,1,0,.13l-.16.36a3,3,0,0,1-.92,1.24,3.05,3.05,0,0,1-2.33.62,5.17,5.17,0,0,1-1.44-.54l-1.54-.73-7.57-3.61-4.47-2.13a6.69,6.69,0,0,1-1.16-.64,3.33,3.33,0,0,1-.86-1.07,3.09,3.09,0,0,1,0-2.72,6.22,6.22,0,0,1,.66-1.21,3.16,3.16,0,0,1,1.09-.87,3.11,3.11,0,0,1,2.65,0l4.46,2.15,7.54,3.66c1.08.52,2.05,1,2.9,1.42a3,3,0,0,1,1.46,1.92,2.92,2.92,0,0,1,0,1.54A1.91,1.91,0,0,1,82.82,309.16Z" style="fill:#263238"></path><path d="M622.05,314.6q7.69,54.75,15.38,109.49l4,.13C638.88,387,636.16,349.1,622.05,314.6Z" style="fill:#455a64"></path><path d="M664.75,309.47C654,321.24,649.69,337.42,647,353.12c-3.85,22.26-4.2,48.54-3.05,71.1l5.61.13A309,309,0,0,1,664.75,309.47Z" style="fill:#455a64"></path><path d="M624.88,379.38c-1.24-5.43-2.65-10.95-5.75-15.57-4.18-6.24-11-10.19-17.85-13.26S587.21,345,581,340.77c6.91,11.33,22.6,14.35,30.59,25,4,5.27,5.62,11.89,7.18,18.31,3.4,14,5.49,26.11,8.89,40.1h4.54A358.57,358.57,0,0,0,624.88,379.38Z" style="fill:#455a64"></path><path d="M653.63,424.22s3.85-43.48,6.71-51.47,29.84-30,29.58-29-20.24,25.17-23.09,30.1S659,424.22,659,424.22Z" style="fill:#455a64"></path></g><g id="freepik--Birds--inject-846"><path d="M255.58,141.73c0,.06-1.11-.39-3.15-.84a25.09,25.09,0,0,0-8.78-.34,23.62,23.62,0,0,0-11.84,5.11,24.59,24.59,0,0,0-8.36,13.26l0,.15-.25,1-.36-.9a26.44,26.44,0,0,0-10-12.08A25.53,25.53,0,0,0,200.59,143a26.86,26.86,0,0,0-8.73.8c-2,.53-3.08,1-3.1.94a3.79,3.79,0,0,1,.76-.37,18.53,18.53,0,0,1,2.27-.81,26.08,26.08,0,0,1,21.33,3,26.66,26.66,0,0,1,10.28,12.33l-.61.05,0-.15a25,25,0,0,1,8.61-13.58,23.91,23.91,0,0,1,12.15-5.1,24.16,24.16,0,0,1,8.9.55,18,18,0,0,1,2.31.73A4.24,4.24,0,0,1,255.58,141.73Z" style="fill:#263238"></path><path d="M353,83.47c0,.06-.62-.17-1.75-.4a13.9,13.9,0,0,0-4.8-.14A12.89,12.89,0,0,0,340,85.74,13.35,13.35,0,0,0,335.47,93l0,.08-.25.95-.36-.9a14.41,14.41,0,0,0-5.44-6.58,14,14,0,0,0-6.65-2.25,15,15,0,0,0-4.78.39c-1.11.27-1.7.51-1.73.46a1.61,1.61,0,0,1,.41-.23,10.1,10.1,0,0,1,1.25-.47A14.33,14.33,0,0,1,329.72,86a14.8,14.8,0,0,1,5.71,6.84l-.6.05,0-.08a13.77,13.77,0,0,1,4.79-7.54,13.32,13.32,0,0,1,11.67-2.45,8.28,8.28,0,0,1,1.27.43A1.61,1.61,0,0,1,353,83.47Z" style="fill:#263238"></path><path d="M284.79,69.84s-.6.69-1.69,1.91A42.09,42.09,0,0,0,279,77.32,40.49,40.49,0,0,0,272.86,99a2.35,2.35,0,0,1,0,.27l-.63,0a35.6,35.6,0,0,0-4-11.73,36.38,36.38,0,0,0-6-8.14A35.67,35.67,0,0,0,257,75c-1.33-.93-2.1-1.39-2.07-1.44a2.7,2.7,0,0,1,.59.28c.37.22.94.49,1.62,1a32.26,32.26,0,0,1,5.41,4.32,35.86,35.86,0,0,1,10.3,20.1l-.63.05V99a39.8,39.8,0,0,1,6.38-21.91,35.51,35.51,0,0,1,4.32-5.49c.55-.61,1.05-1,1.36-1.33S284.77,69.82,284.79,69.84Z" style="fill:#263238"></path></g><g id="freepik--Sea--inject-846"><path d="M692.15,225.43c0,.14-153.95.26-343.81.26s-343.85-.12-343.85-.26,153.92-.26,343.85-.26S692.15,225.29,692.15,225.43Z" style="fill:#263238"></path><path d="M683.6,424.13c0,.15-23.62.26-52.74.26s-52.75-.11-52.75-.26,23.61-.26,52.75-.26S683.6,424,683.6,424.13Z" style="fill:#263238"></path><path d="M632.42,426.61c0,.14-.83.26-1.86.26s-1.85-.12-1.85-.26.83-.26,1.85-.26S632.42,426.47,632.42,426.61Z" style="fill:#455a64"></path><path d="M641.86,427.16c0,.15-.88.26-2,.26s-2-.11-2-.26.88-.26,2-.26S641.86,427,641.86,427.16Z" style="fill:#455a64"></path><path d="M648.47,427.3c0,.14-.76.26-1.69.26s-1.69-.12-1.69-.26.76-.26,1.69-.26S648.47,427.16,648.47,427.3Z" style="fill:#455a64"></path><path d="M658.25,427.16a9.48,9.48,0,0,1-4.41,0,9.48,9.48,0,0,1,4.41,0Z" style="fill:#455a64"></path><path d="M649.57,429.3c0,.14-.82.26-1.82.26s-1.83-.12-1.83-.26.82-.26,1.83-.26S649.57,429.15,649.57,429.3Z" style="fill:#455a64"></path><path d="M644.2,430.05a9.19,9.19,0,0,1-4.34,0,9.19,9.19,0,0,1,4.34,0Z" style="fill:#455a64"></path><path d="M606.79,292.57c0,.15-29.93.26-66.86.26s-66.86-.11-66.86-.26,29.93-.26,66.86-.26S606.79,292.43,606.79,292.57Z" style="fill:#263238"></path><path d="M646.08,304.75c0,.15-29.94.26-66.86.26s-66.87-.11-66.87-.26,29.94-.26,66.87-.26S646.08,304.61,646.08,304.75Z" style="fill:#263238"></path><path d="M734.6,233c0,.14-63.16.26-141.06.26s-141.08-.12-141.08-.26,63.15-.26,141.08-.26S734.6,232.85,734.6,233Z" style="fill:#455a64"></path><path d="M525.72,238.25c0,.15-18.75.27-41.86.27S442,238.4,442,238.25s18.74-.26,41.87-.26S525.72,238.11,525.72,238.25Z" style="fill:#455a64"></path><path d="M744.33,237.79c0,.14-15.1.26-33.72.26s-33.73-.12-33.73-.26,15.1-.26,33.73-.26S744.33,237.65,744.33,237.79Z" style="fill:#455a64"></path><path d="M211.63,341.49c0,.14-30.09.26-67.21.26s-67.21-.12-67.21-.26,30.09-.26,67.21-.26S211.63,341.35,211.63,341.49Z" style="fill:#263238"></path><path d="M222.17,326.24c0,.14-11.44.26-25.56.26s-25.55-.12-25.55-.26,11.44-.26,25.55-.26S222.17,326.09,222.17,326.24Z" style="fill:#263238"></path><path d="M124,345.91a102.25,102.25,0,0,1-10.24.26,102.13,102.13,0,0,1-10.23-.26,102.13,102.13,0,0,1,10.23-.26A102.25,102.25,0,0,1,124,345.91Z" style="fill:#455a64"></path><path d="M112,350.58a16.32,16.32,0,0,1-4.07.06,15.88,15.88,0,0,1-4-.47,16.06,16.06,0,0,1,4.07-.05A15.63,15.63,0,0,1,112,350.58Z" style="fill:#455a64"></path><path d="M107.53,355.84c0,.15-.83.22-1.84.16s-1.82-.22-1.81-.36.83-.21,1.84-.16S107.54,355.7,107.53,355.84Z" style="fill:#455a64"></path></g><g id="freepik--Character--inject-846"><polygon points="388.49 344.08 389.48 367.45 402.1 367.17 401.16 343.75 388.49 344.08" style="fill:#5AA0D0"></polygon><path d="M395.68,366.43c.1,0-.09-5.12-.44-11.43s-.71-11.41-.82-11.41.09,5.13.44,11.43S395.57,366.44,395.68,366.43Z" style="fill:#263238"></path><polygon points="389.42 365.84 402.03 365.52 402.1 367.17 389.48 367.45 389.42 365.84" style="fill:#263238"></polygon><path d="M401.8,359.69s-.1-.2-.35-.5a8.71,8.71,0,0,0-1.18-1.15,8.58,8.58,0,0,0-2.1-1.27,6.73,6.73,0,0,0-7.78,1.82,5.69,5.69,0,0,0-.86,1.41c-.15.37-.2.58-.17.58a13.13,13.13,0,0,1,1.23-1.81,6.7,6.7,0,0,1,4.64-2.16,7.72,7.72,0,0,1,4.88,1.64C401.2,359.07,401.75,359.73,401.8,359.69Z" style="fill:#263238"></path><polygon points="388.8 353.52 389.08 356.73 401.63 355.6 401.55 353.52 388.8 353.52" style="opacity:0.30000000000000004"></polygon><path d="M340.07,346.83l.54,14s-14,5-14.16,7.57l27.16.22.06-21.89Z" style="fill:#5AA0D0"></path><path d="M348.85,359.71a1.11,1.11,0,0,1,.77,1.28,1.08,1.08,0,0,1-1.25.78,1.19,1.19,0,0,1-.82-1.36,1.12,1.12,0,0,1,1.4-.67" style="fill:#e0e0e0"></path><path d="M353.61,368.65v-1.74l-26.37.31a2.06,2.06,0,0,0-.94,1.36Z" style="fill:#263238"></path><path d="M340.36,361c0,.13.68.19,1.34.62s1,1,1.13.94-.08-.83-.89-1.33S340.33,360.83,340.36,361Z" style="fill:#263238"></path><path d="M337.49,362.15c0,.13.55.35,1,.92s.59,1.16.73,1.16.21-.77-.37-1.46S337.49,362,337.49,362.15Z" style="fill:#263238"></path><path d="M335.86,365.6c.12,0,.31-.65,0-1.38s-1-1-1-.91.33.5.61,1.11S335.73,365.58,335.86,365.6Z" style="fill:#263238"></path><path d="M340.59,357.72c.06.12.68-.07,1.43,0s1.35.29,1.42.17-.5-.59-1.39-.63S340.53,357.61,340.59,357.72Z" style="fill:#263238"></path><path d="M340.1,354.7a2.73,2.73,0,0,0,1.37,0,6.68,6.68,0,0,0,1.44-.45,8.71,8.71,0,0,0,.79-.42,1.77,1.77,0,0,0,.41-.32.59.59,0,0,0,.06-.72.72.72,0,0,0-.59-.3,1.57,1.57,0,0,0-.51.07,5.44,5.44,0,0,0-.86.3,5,5,0,0,0-1.26.83c-.64.59-.85,1.09-.81,1.12s.37-.38,1-.87a5.52,5.52,0,0,1,1.22-.69,6.08,6.08,0,0,1,.79-.25c.29-.07.54-.07.61.05s0,.07,0,.16a1.3,1.3,0,0,1-.3.23,7.85,7.85,0,0,1-.72.42,7.57,7.57,0,0,1-1.33.51A8.8,8.8,0,0,0,340.1,354.7Z" style="fill:#263238"></path><g style="opacity:0.30000000000000004"><polygon points="353.69 355.17 353.64 358.28 340.51 358.22 340.52 355.4 353.69 355.17"></polygon></g><polygon points="402.36 228.96 399.88 238.25 392.62 229.72 396.49 221.19 402.36 225.43 402.36 228.96" style="fill:#ffbe9d"></polygon><path d="M403.78,151.23s3.69,4,4.1,8.34,6.79,43,6.79,43-9.84,24.58-12.31,26.43l-7.47-3.07,6.15-26.4-4.46-17.93Z" style="fill:#5AA0D0"></path><path d="M413.06,204.58a5.42,5.42,0,0,1-3.89.15,5.5,5.5,0,0,1-3.32-2,19.37,19.37,0,0,0,3.45,1.55A19.68,19.68,0,0,0,413.06,204.58Z" style="fill:#263238"></path><path d="M412.08,183.89a19.49,19.49,0,0,1-1.9,1.17c-1.19.7-2.82,1.68-4.58,2.82s-3.32,2.23-4.44,3a16.91,16.91,0,0,1-1.84,1.26,2.58,2.58,0,0,1,.44-.41c.29-.26.72-.61,1.27-1,1.09-.85,2.63-2,4.4-3.12s3.42-2.1,4.64-2.75c.61-.33,1.11-.58,1.46-.75A2.62,2.62,0,0,1,412.08,183.89Z" style="fill:#fff"></path><path d="M409,170.6a18.1,18.1,0,0,1-1.77.84,32,32,0,0,0-4.09,2.28,33,33,0,0,0-3.7,2.86c-.9.8-1.43,1.33-1.46,1.3s.1-.17.32-.42a13.75,13.75,0,0,1,1-1,25.11,25.11,0,0,1,3.68-3,25.4,25.4,0,0,1,4.17-2.23c.56-.23,1-.4,1.35-.5A1.82,1.82,0,0,1,409,170.6Z" style="fill:#fff"></path><path d="M407.4,159.21a18.42,18.42,0,0,0-3.8,1.28,17.81,17.81,0,0,0-3.24,2.36,3.42,3.42,0,0,1,.75-.94,10.21,10.21,0,0,1,2.35-1.7,9.89,9.89,0,0,1,2.75-.93A3.21,3.21,0,0,1,407.4,159.21Z" style="fill:#fff"></path><path d="M413.17,202s-.63-.29-1.67-.69a15.53,15.53,0,0,0-8.53-.8c-1.09.2-1.75.43-1.77.37s.15-.09.45-.2a9.06,9.06,0,0,1,1.27-.39,14,14,0,0,1,4.4-.3,13.85,13.85,0,0,1,4.27,1.11,9.2,9.2,0,0,1,1.18.62A2,2,0,0,1,413.17,202Z" style="fill:#fff"></path><path d="M406.76,216.5c-.05,0-.31-.57-.85-1.46a14.85,14.85,0,0,0-2.54-3.11,15.14,15.14,0,0,0-3.31-2.3c-.92-.47-1.53-.68-1.52-.73a1.23,1.23,0,0,1,.45.09,10.68,10.68,0,0,1,1.17.44,12.73,12.73,0,0,1,3.42,2.27,13.17,13.17,0,0,1,2.53,3.23,8.9,8.9,0,0,1,.52,1.13C406.74,216.34,406.78,216.49,406.76,216.5Z" style="fill:#fff"></path><path d="M342.14,226.07c.09.37,3.74,9.83,3.74,9.83l6-2.57.45-7.9-2.43-4.24Z" style="fill:#ffbe9d"></path><path d="M362.92,138.36c-.9,0-15.12,6.55-17.61,8.13s-16.48,52.59-16.48,55.3,13.3,25.78,13.3,25.78,7.12-3.24,8-3.91-6.27-23.57-6.27-23.57l5.94-21.77Z" style="fill:#5AA0D0"></path><path d="M341.64,202a3.44,3.44,0,0,1-1.08,1.2,8.64,8.64,0,0,1-7.43,1.58,3.3,3.3,0,0,1-1.47-.66,9.38,9.38,0,0,1,1.55.3,10.2,10.2,0,0,0,3.71-.08,9.77,9.77,0,0,0,3.42-1.44C341.14,202.34,341.57,201.91,341.64,202Z" style="fill:#263238"></path><path d="M347.46,213.89c0,.05-.65.2-1.64.6a14.27,14.27,0,0,0-3.6,2.12,13.85,13.85,0,0,0-2.8,3.09c-.6.9-.88,1.51-.93,1.49a1.55,1.55,0,0,1,.15-.45,8.47,8.47,0,0,1,.59-1.16,12.47,12.47,0,0,1,6.51-5.3,9.39,9.39,0,0,1,1.24-.34A1.56,1.56,0,0,1,347.46,213.89Z" style="fill:#fff"></path><path d="M343,205.69a5.49,5.49,0,0,1-1.27,1.07,13.41,13.41,0,0,1-3.6,1.75,13.67,13.67,0,0,1-4,.63,5.87,5.87,0,0,1-1.65-.15c0-.05.63,0,1.64-.07a16.52,16.52,0,0,0,3.87-.71,16.19,16.19,0,0,0,3.58-1.63C342.46,206.05,343,205.65,343,205.69Z" style="fill:#fff"></path><path d="M344.06,195a18.09,18.09,0,0,1-1.77-.59,37.7,37.7,0,0,0-4.31-1.17,36.73,36.73,0,0,0-4.43-.61,15.54,15.54,0,0,1-1.85-.16,7.79,7.79,0,0,1,1.86-.06,27,27,0,0,1,8.81,1.8A8.14,8.14,0,0,1,344.06,195Z" style="fill:#fff"></path><path d="M346.92,184.47c-.05,0-.47-.58-1.31-1.44a14.62,14.62,0,0,0-3.72-2.74,14.79,14.79,0,0,0-4.41-1.4c-1.18-.17-1.93-.15-1.93-.2s.18-.05.52-.06a9.22,9.22,0,0,1,1.43,0A13.24,13.24,0,0,1,342,180a12.9,12.9,0,0,1,3.74,2.86,9,9,0,0,1,.89,1.13A2.6,2.6,0,0,1,346.92,184.47Z" style="fill:#fff"></path><path d="M346.12,166.63a8.91,8.91,0,0,0-6.92-2.15,6.6,6.6,0,0,1,6.92,2.15Z" style="fill:#fff"></path><g style="opacity:0.30000000000000004"><path d="M348.91,181.86a86.85,86.85,0,0,1-2.57-11.14,28.77,28.77,0,0,1,.43-11.36c1.56,7.23,1.71,14.67,1.86,22.06l-.07-.63"></path></g><path d="M345.86,155.74a11.89,11.89,0,0,0-.94-1.83,12.45,12.45,0,0,0-1.45-1.46,3.63,3.63,0,0,1,2.39,3.29Z" style="fill:#fff"></path><path d="M345.88,223.37l-4.26,61.87s-3.3,24.91-3.3,32.75,1.12,37.91,1.12,37.91h15.29l15.59-107s1.56-1.34,1.79,0,9.11,39.65,10,45.78c.69,4.89,6.41,59.91,6.41,59.91l13.21-.56s1.24-49.57.34-65.48l-2.35-54.79-3.21-15.53-43.19-1.61Z" style="fill:#263238"></path><path d="M387,245.05c0,.14-5.71,1.11-12.81,2.17s-12.86,1.8-12.88,1.66,5.71-1.11,12.81-2.17S387,244.91,387,245.05Z" style="fill:#455a64"></path><path d="M356,291c.07.14-2.54,1.58-5.58,3.62s-5.38,3.9-5.48,3.78A36.42,36.42,0,0,1,356,291Z" style="fill:#455a64"></path><path d="M398.94,290.54a31.65,31.65,0,0,0-5.82,0,31.26,31.26,0,0,0-5.6,1.6,11.17,11.17,0,0,1,5.52-2.12A11.43,11.43,0,0,1,398.94,290.54Z" style="fill:#455a64"></path><path d="M379.21,139.39a5.08,5.08,0,0,1-1.15,0c-.73-.05-1.79-.13-3.09-.34a16.66,16.66,0,0,1-4.45-1.35,9.85,9.85,0,0,1-4.28-3.77,15.16,15.16,0,0,1-1.75-5.43c-.27-1.72-.43-3.27-.65-4.56a30,30,0,0,0-1-4.08,3.71,3.71,0,0,1,.53,1,16.23,16.23,0,0,1,.87,3c.27,1.29.47,2.84.76,4.54a15.31,15.31,0,0,0,1.73,5.24,9.54,9.54,0,0,0,4,3.61,17.19,17.19,0,0,0,4.3,1.41C377.59,139.15,379.22,139.29,379.21,139.39Z" style="fill:#263238"></path><path d="M372.25,95.11l.37-.1a7.09,7.09,0,0,1,5.8-3.45A9.19,9.19,0,0,1,384.85,94c1.23,1.08,2.19,2.43,3.42,3.5A5.36,5.36,0,0,0,392.72,99c.2.59-.91.94-.85,1.57a.75.75,0,0,0,.63.55,9.55,9.55,0,0,0,1.31,0,1,1,0,0,1,1.05.64,1.25,1.25,0,0,1-.06.63,11.16,11.16,0,0,1-2.59,5.07,5.94,5.94,0,0,1-5.19,1.89,9.38,9.38,0,0,1-4-2.23l-6.82-5.46a15.25,15.25,0,0,1-2.9-2.77A5.16,5.16,0,0,1,372.25,95.11Z" style="fill:#263238"></path><path d="M373.67,95.49a7.41,7.41,0,0,0-3.17-1.58,4.47,4.47,0,0,0-3.42.66A9.67,9.67,0,0,0,365,97.14a4.15,4.15,0,0,1-2.57,2,.93.93,0,0,0-.55.18c-.25.24-.07.7.24.84a1.62,1.62,0,0,0,1,0,3.58,3.58,0,0,1-2.14,1.2,1.57,1.57,0,0,0,1.92,1.11,15.88,15.88,0,0,0-.63,3.91,5.43,5.43,0,0,0,1.28,3.67c1,1.08,2.61,1.68,3,3.07" style="fill:#263238"></path><path d="M383.23,142.24,365.49,142l2-15.11s-1.22-.26-1.3-6.83-.38-17.74-.38-17.74h0a22.86,22.86,0,0,1,22.95,2.89l1,.75Z" style="fill:#ffbe9d"></path><path d="M387.66,114.06c.11,0,4.52-1.33,4.37,3.16s-4.62,3.42-4.62,3.29S387.66,114.06,387.66,114.06Z" style="fill:#ffbe9d"></path><path d="M366.56,113.12c-.11-.05-4.11-1.13-4,3.37s4.62,3.42,4.63,3.29S366.56,113.12,366.56,113.12Z" style="fill:#ffbe9d"></path><path d="M389.12,113.56c-.67,3.76-.54,5.74-1.16,8.26a13.22,13.22,0,0,1-6.54,9c-3.59,2-8.44,1.95-11.52-.75a10.51,10.51,0,0,1-4-6.83c-.32-2.82-1.15-8.13-1.17-11,0-5.13.13-9.73.13-9.73l14.66-2.66,8.33,5Z" style="fill:#263238"></path><path d="M374,133.1a6.55,6.55,0,0,0,5-.55c0-.11-1.13.23-2.5.37S374,133,374,133.1Z" style="fill:#263238"></path><path d="M388.41,120c.43-3.86.71-8.27,1.31-12.34a26.08,26.08,0,0,0,.64-5.26c-.14-1.54-.56-1.07-1.24-2.47-.85-1.74-4.11-2.9-6-3.29s-2.15-2-3.61-.75a4.76,4.76,0,0,0-8.67,2,3.3,3.3,0,0,0-5.45,3.31,3.22,3.22,0,0,0-2.18,4.94c.68,1,1.9,1.62,2.65,2.62a3.76,3.76,0,0,1,.23,4.06" style="fill:#263238"></path><path d="M369.53,119.16a8.59,8.59,0,0,0,2.74,7.24,24.29,24.29,0,0,1-1.85-3.44A24.94,24.94,0,0,1,369.53,119.16Z" style="fill:#455a64"></path><path d="M367.56,115.88a5.72,5.72,0,0,0-.28,3.56,5.65,5.65,0,0,0,1.52,3.22,19.41,19.41,0,0,1-1.12-3.3A20.48,20.48,0,0,1,367.56,115.88Z" style="fill:#455a64"></path><path d="M390.46,110.69s2.42,0,3.09,1.14-.2,9.45-1.08,10.19-4.56-.4-4.56-.4,1.55-8.45.94-10.6Z" style="fill:#5AA0D0"></path><path d="M362.59,110.09a4.91,4.91,0,0,0-2.38,1.7c-.67,1.14.12,8.89,1,9.63s4.56-.4,4.56-.4-1.47-8.79-.87-10.93Z" style="fill:#5AA0D0"></path><path d="M362.59,110.09s.83-14.52,14.58-14.72,14,15.43,14,15.43l-2.07.17s.46-14.22-11.35-14.73S364,109.57,364.9,110.09Z" style="fill:#5AA0D0"></path><path d="M386,100.35a10.05,10.05,0,0,0-4.57-4.09,5.87,5.87,0,0,0-5.89.74" style="fill:#263238"></path><path d="M385.65,110.29a3.73,3.73,0,0,1,.14-1.32,16.85,16.85,0,0,0,.34-3.12,6.83,6.83,0,0,0-.67-3c-.35-.71-.71-1.08-.65-1.14s.5.24,1,1a6,6,0,0,1,.87,3.16,11.06,11.06,0,0,1-.5,3.2A3.5,3.5,0,0,1,385.65,110.29Z" style="fill:#455a64"></path><path d="M382.62,111.78a7.31,7.31,0,0,1,.58-2.08,7.69,7.69,0,0,1,.72-2,3.53,3.53,0,0,1-.22,2.19C383.33,111,382.74,111.85,382.62,111.78Z" style="fill:#455a64"></path><path d="M368.54,110.62a3.68,3.68,0,0,1-1-1.6,7.92,7.92,0,0,1,1.72-8.6,3.83,3.83,0,0,1,1.54-1.1c.05.07-.54.49-1.27,1.35a8.43,8.43,0,0,0-1.65,8.22C368.23,110,368.62,110.58,368.54,110.62Z" style="fill:#455a64"></path><path d="M384.56,93.91a6,6,0,0,1-1.44-.61,8.71,8.71,0,0,0-3.54-.87,4.33,4.33,0,0,0-3.2,1.35,10.14,10.14,0,0,0-.82,1.28c-.06,0-.08-.67.53-1.51a4,4,0,0,1,1.37-1.14,4.8,4.8,0,0,1,2.12-.5,7.52,7.52,0,0,1,3.7,1.06C384.13,93.46,384.6,93.85,384.56,93.91Z" style="fill:#455a64"></path><path d="M364.52,98.07s.05-.52.53-1.18a4.84,4.84,0,0,1,5.71-1.66c.75.31,1.11.67,1.07.72s-.46-.18-1.19-.37a5.16,5.16,0,0,0-5.31,1.54C364.82,97.68,364.6,98.11,364.52,98.07Z" style="fill:#455a64"></path><path d="M369.36,114.59c0-.07.72-.26,1.9-.79a15.13,15.13,0,0,0,4.34-2.94l.85-.82-.46,1.09a10.24,10.24,0,0,0-.64,2.14c-.07.37-.13.83,0,.89s.5-.08.84-.32a13.71,13.71,0,0,0,3-2.66l.78-.94-.36,1.16c-.35,1.16-.68,2.24-1,3.22l-.33-.21a19.94,19.94,0,0,0,2.87-3.61,3.8,3.8,0,0,1-.51,1.17,12.29,12.29,0,0,1-2.08,2.74l-.55.54.21-.75c.28-1,.59-2.07.91-3.24l.43.23a13.39,13.39,0,0,1-3.11,2.79c-.19.11-.35.23-.58.34a.84.84,0,0,1-.85,0,.88.88,0,0,1-.29-.78,5.43,5.43,0,0,1,.09-.62,9.77,9.77,0,0,1,.7-2.24l.38.27a14,14,0,0,1-4.56,2.86A6.31,6.31,0,0,1,369.36,114.59Z" style="fill:#455a64"></path><path d="M377.93,97.26a2.31,2.31,0,0,0-1.42-1.09,4.14,4.14,0,0,0-1.82,0,6.51,6.51,0,0,0-3.82,2.22c-.22.26-.42.66-.18.91a.73.73,0,0,0,.5.18,28.23,28.23,0,0,0,6.62-.24" style="fill:#263238"></path><path d="M363.92,121.58a19.94,19.94,0,0,1-1.28-5.64,19.31,19.31,0,0,1-.07-5.78c.15,0,.21,2.58.59,5.72S364.06,121.54,363.92,121.58Z" style="fill:#263238"></path><path d="M389.3,121.92a15.27,15.27,0,0,1,.69-1.55,14.71,14.71,0,0,0,1-3.88,38.27,38.27,0,0,0,.22-4,5.69,5.69,0,0,1,.11-1.7,5.4,5.4,0,0,1,.25,1.69,20.12,20.12,0,0,1-.07,4.13,11.68,11.68,0,0,1-1.19,4C389.82,121.48,389.35,122,389.3,121.92Z" style="fill:#263238"></path><path d="M388,138a12.26,12.26,0,0,1,.15-2.34c.14-1.44.34-3.43.52-5.62s.29-4.2.38-5.64a12.08,12.08,0,0,1,.23-2.34,9.38,9.38,0,0,1,.14,2.35c0,1.45-.06,3.46-.23,5.67s-.44,4.19-.68,5.63A9.26,9.26,0,0,1,388,138Z" style="fill:#263238"></path><path d="M388.87,111.25a4.22,4.22,0,0,1,4.62.24c-.07.14-1.05-.24-2.3-.29S388.92,111.39,388.87,111.25Z" style="fill:#263238"></path><path d="M360,112.16s0-.37.34-.83a4,4,0,0,1,3.8-1.65c.54.09.85.25.83.31a10.31,10.31,0,0,0-2.75.46C360.76,111.06,360.1,112.25,360,112.16Z" style="fill:#263238"></path><path d="M401.75,164.54c-.68.68-5.65,26.19-6.1,31.16s5.78,25.63,2.06,30.59l-2.08.56H345.57l4.26-34.76-2-29.13.36-18,14.76-6.6h21.67s19.19,11.29,19.19,12.87S401.75,164.54,401.75,164.54Z" style="fill:#5AA0D0"></path><path d="M345.88,224.37a2.59,2.59,0,0,1,0-.66c0-.43.06-1.07.12-1.88.13-1.63.38-4,.71-6.91.67-5.83,1.68-13.9,2.88-22.87v.06l-.13-1.33c-.89-9.32-1.45-17.77-1.93-23.88-.23-3-.41-5.47-.55-7.24-.06-.81-.1-1.46-.14-2a2.76,2.76,0,0,1,0-.69,5.7,5.7,0,0,1,.12.68c.06.5.13,1.15.23,1.95.2,1.71.44,4.18.72,7.23.57,6.1,1.19,14.55,2.08,23.86l.13,1.33v.06c-1.19,8.94-2.26,17-3,22.85-.36,2.86-.66,5.2-.87,6.88-.09.77-.16,1.39-.22,1.87A5.11,5.11,0,0,1,345.88,224.37Z" style="fill:#263238"></path><path d="M396.8,227.57s.14-.17.4-.5a10.66,10.66,0,0,0,1-1.5,7.08,7.08,0,0,0,.88-2.71,21.39,21.39,0,0,0-.36-3.82c-.85-5.71-2.21-13.63-3.75-22.57v-.1c.28-1.42.56-2.93.82-4.47,1.66-10,2.9-19.09,3.86-25.67.46-3.24.84-5.89,1.12-7.78.13-.88.24-1.59.32-2.12a3.75,3.75,0,0,1,.15-.73,4.11,4.11,0,0,1,0,.74c-.06.54-.14,1.25-.23,2.13-.23,1.9-.56,4.56-1,7.81-.86,6.59-2,15.69-3.7,25.71-.27,1.54-.55,3-.83,4.49v-.1c1.53,9,2.82,16.88,3.58,22.61a20.33,20.33,0,0,1,.29,3.9,6.86,6.86,0,0,1-1,2.77,9,9,0,0,1-1.11,1.48A2.25,2.25,0,0,1,396.8,227.57Z" style="fill:#263238"></path><path d="M388.57,137.22a1.89,1.89,0,0,0-2.1-.91c.39-.95-.75-1.92-1.77-1.84a6,6,0,0,0-2.71,1.34,12.35,12.35,0,0,1-12.79.37c-1.71-1-3.35-2.47-5.32-2.4-2.2.09-3.79,2-5.08,3.82-.69,1-1.4,2.13-.95,3.21l.84-.13c1.55,4.34,3.24,8.89,6.77,11.85a14.26,14.26,0,0,0,15.87,1.22,16.16,16.16,0,0,0,7.79-14.15A4.59,4.59,0,0,0,388.57,137.22Z" style="fill:#5AA0D0"></path><path d="M389.22,141.21a1.59,1.59,0,0,1-.08.48c-.06.32-.18.78-.34,1.37a29.47,29.47,0,0,1-1.81,4.85,17.71,17.71,0,0,1-4.7,6.08,13.7,13.7,0,0,1-4,2.26,11,11,0,0,1-4.9.55,15.12,15.12,0,0,1-4.7-1.42A21.23,21.23,0,0,1,364.8,153a12.61,12.61,0,0,1-2.85-3,16.39,16.39,0,0,1-1.61-3.22c-.77-2.05-1.23-3.75-1.64-4.9s-.65-1.77-.61-1.78a2.63,2.63,0,0,1,.24.42c.14.29.33.73.56,1.29.47,1.13,1,2.83,1.79,4.84a17,17,0,0,0,1.63,3.11,12.33,12.33,0,0,0,2.78,2.87,21.13,21.13,0,0,0,3.84,2.27,15.34,15.34,0,0,0,4.54,1.37,10.58,10.58,0,0,0,4.67-.53,13.19,13.19,0,0,0,3.85-2.14,17.76,17.76,0,0,0,4.67-5.88,34.05,34.05,0,0,0,1.95-4.74A16.47,16.47,0,0,1,389.22,141.21Z" style="fill:#263238"></path><g style="opacity:0.30000000000000004"><path d="M384.18,135.06c-.73-.41-1.33.18-2,.73-2.05,1.78-5.42,2.21-8.08,1.93a12.79,12.79,0,0,1-7.11-2.81,4.58,4.58,0,0,0-2.28-1,2,2,0,0,0-1.91.78,4.75,4.75,0,0,1,2.52,2.54c1,1.85,1.61,3.83,2.47,5.72a12.74,12.74,0,0,0,3.62,5,6.14,6.14,0,0,0,5.86,1.09,8.41,8.41,0,0,0,3.69-3.61,31.44,31.44,0,0,0,3.58-8C384.82,136.58,384.93,135.49,384.18,135.06Z"></path></g><path d="M385.27,136s-.22.49-.59,1.36-.8,2.19-1.3,3.83a16.77,16.77,0,0,1-2.54,5.49,8,8,0,0,1-2.77,2.35,5.45,5.45,0,0,1-3.9.34,7.77,7.77,0,0,1-3.33-2,12.2,12.2,0,0,1-2.09-2.94c-1.06-2-1.71-4-2.48-5.49a13.42,13.42,0,0,0-2.18-3.35c-.63-.71-1.07-1-1-1a1.23,1.23,0,0,1,.33.19,7.35,7.35,0,0,1,.86.72,12.67,12.67,0,0,1,2.36,3.32c.82,1.53,1.51,3.46,2.57,5.43a12.08,12.08,0,0,0,2,2.81,7.36,7.36,0,0,0,3.11,1.89,5,5,0,0,0,3.54-.3,7.62,7.62,0,0,0,2.61-2.18,17.24,17.24,0,0,0,2.57-5.32,31.4,31.4,0,0,1,1.47-3.79,8.76,8.76,0,0,1,.54-1A1.42,1.42,0,0,1,385.27,136Z" style="fill:#263238"></path><path d="M385.68,143.6a3.46,3.46,0,0,1-.25,1,9.9,9.9,0,0,1-1.28,2.41,11.29,11.29,0,0,1-16,2.67,10.26,10.26,0,0,1-2-1.86,3.15,3.15,0,0,1-.55-.84,19.34,19.34,0,0,0,2.75,2.4,11.29,11.29,0,0,0,15.55-2.59A21,21,0,0,0,385.68,143.6Z" style="fill:#263238"></path><path d="M394.07,207.79a1.25,1.25,0,0,1-.41.07c-.27,0-.66,0-1.18.06a22.2,22.2,0,0,1-4.31-.4,32.05,32.05,0,0,1-6.16-1.87,56.83,56.83,0,0,1-7-3.59c-4.78-2.87-9-5.65-12.05-7.61l-3.61-2.37a9.37,9.37,0,0,1-1.28-.93,9.19,9.19,0,0,1,1.39.76l3.7,2.23c3.12,1.88,7.35,4.61,12.12,7.47a59.76,59.76,0,0,0,6.92,3.59,33.53,33.53,0,0,0,6,2,27.6,27.6,0,0,0,4.25.56A14.39,14.39,0,0,1,394.07,207.79Z" style="fill:#263238"></path><g style="opacity:0.30000000000000004"><path d="M360.2,192.35l-.41.09,14.74,8.89c3.7,2.23,7.5,4.5,11.74,5.3A62,62,0,0,0,360.2,192.35Z"></path></g><g style="opacity:0.30000000000000004"><path d="M358.71,140.78a20.33,20.33,0,0,0,9.42,16.86,11.49,11.49,0,0,0,6.77,2,10.11,10.11,0,0,0,6.25-3,20.19,20.19,0,0,0,3.94-5.86A13.82,13.82,0,0,1,365.17,153c-3.69-3.09-5.5-7.85-6.74-12.5"></path></g><g style="opacity:0.30000000000000004"><path d="M367.51,149.27a11.91,11.91,0,0,0,8.87,3.46,8.66,8.66,0,0,0,7.51-5.44,11.95,11.95,0,0,1-16.44,1.64"></path></g><path d="M359.44,146.44a19.32,19.32,0,0,1-2.09.36c-1.29.19-3.07.47-5,.83s-3.72.73-5,1a16.93,16.93,0,0,1-2.07.41,1.91,1.91,0,0,1,.53-.2c.35-.11.86-.26,1.49-.42,1.27-.33,3-.74,5-1.1s3.76-.6,5.06-.74c.65-.07,1.17-.12,1.54-.14A2.11,2.11,0,0,1,359.44,146.44Z" style="fill:#fff"></path><path d="M365.29,138.23a9.94,9.94,0,0,0-3.38,1.94,10.13,10.13,0,0,0-2.16,3.25,2.85,2.85,0,0,1,.3-1.14,7.07,7.07,0,0,1,1.64-2.34,7,7,0,0,1,2.44-1.48A2.65,2.65,0,0,1,365.29,138.23Z" style="fill:#fff"></path><path d="M367.13,148.45c0,.09-.79.54-1.56,1.38s-1.19,1.7-1.27,1.66a3.36,3.36,0,0,1,1-1.87A3.53,3.53,0,0,1,367.13,148.45Z" style="fill:#fff"></path><path d="M369.76,146c0,.09-.71.31-1.48.82s-1.28,1.06-1.35,1,.35-.75,1.18-1.28A2.69,2.69,0,0,1,369.76,146Z" style="fill:#fff"></path><path d="M373.57,156.18a2.94,2.94,0,0,1-.91-2.08,2.86,2.86,0,0,1,.58-2.19,8,8,0,0,0-.26,2.17A8.39,8.39,0,0,0,373.57,156.18Z" style="fill:#fff"></path><path d="M377.65,151.09c0,.07-.41-.14-.54-.61s.09-.85.16-.81,0,.36.15.72S377.71,151,377.65,151.09Z" style="fill:#fff"></path><path d="M382.54,152.52a3.52,3.52,0,0,0,.09-1.51,3.73,3.73,0,0,0-.73-1.32s.2,0,.44.22a2,2,0,0,1,.6,1,2.06,2.06,0,0,1-.09,1.19C382.72,152.41,382.57,152.54,382.54,152.52Z" style="fill:#fff"></path><path d="M384.72,146c-.08,0-.19-.72-1-1.08a2.3,2.3,0,0,0-1.45-.12s.11-.18.41-.28a1.58,1.58,0,0,1,1.18.12,1.65,1.65,0,0,1,.8.87C384.81,145.83,384.76,146,384.72,146Z" style="fill:#fff"></path><path d="M387.93,143.19c-.06,0-.07-.32-.22-.79a3.71,3.71,0,0,0-1.07-1.55,3.62,3.62,0,0,0-1.7-.82c-.48-.09-.8-.05-.81-.11a1.41,1.41,0,0,1,.84-.11,3.4,3.4,0,0,1,2.95,2.53A1.46,1.46,0,0,1,387.93,143.19Z" style="fill:#fff"></path><path d="M399.72,159.55h-.53l-1.51,0-5.58-.1c-4.71-.08-11.21-.16-18.39-.13s-13.69.16-18.4.29l-5.57.15-1.52,0h-.53a3.13,3.13,0,0,1,.53-.05l1.51-.09,5.58-.25c4.7-.18,11.21-.35,18.4-.38s13.69.08,18.4.22l5.57.2,1.51.08A3.13,3.13,0,0,1,399.72,159.55Z" style="fill:#fff"></path><path d="M398.71,148.25a8.48,8.48,0,0,1-1.54-.22c-.95-.16-2.26-.38-3.71-.58s-2.77-.33-3.73-.42a8.75,8.75,0,0,1-1.54-.2,7,7,0,0,1,1.56,0,37.68,37.68,0,0,1,3.76.33c1.45.2,2.76.45,3.7.67A6.8,6.8,0,0,1,398.71,148.25Z" style="fill:#fff"></path><path d="M397.91,174a2.2,2.2,0,0,1-.5.06l-1.41.1c-1.24.09-3,.19-5.23.29-4.41.2-10.51.39-17.26.42s-12.85-.12-17.26-.3c-2.21-.09-4-.17-5.23-.25l-1.42-.09a2.75,2.75,0,0,1-.49-.05,2.38,2.38,0,0,1,.5,0l1.42,0,5.23.15c4.41.12,10.51.23,17.25.2s12.84-.17,17.25-.32l5.23-.19,1.42,0Z" style="fill:#fff"></path><path d="M396.29,189.63l-.47,0-1.33.07c-1.16,0-2.83.1-4.9.15-4.15.1-9.87.16-16.19.07s-12-.3-16.18-.51c-2.07-.11-3.75-.21-4.9-.29l-1.33-.1a2.13,2.13,0,0,1-.46-.05,1.48,1.48,0,0,1,.46,0l1.33,0,4.91.19c4.13.15,9.85.33,16.17.42s12,.06,16.18,0l4.91-.06h1.33A2.42,2.42,0,0,1,396.29,189.63Z" style="fill:#fff"></path><path d="M371.79,200.86a5.5,5.5,0,0,1-.92.11c-.58.06-1.44.11-2.49.16-2.11.11-5,.18-8.25.1s-6.14-.28-8.24-.49c-1.05-.1-1.9-.2-2.48-.28a4.16,4.16,0,0,1-.91-.16,6.33,6.33,0,0,1,.92,0l2.49.18c2.1.15,5,.32,8.23.4s6.12,0,8.23,0l2.5-.06A6,6,0,0,1,371.79,200.86Z" style="fill:#fff"></path><path d="M396.49,202.15a3.29,3.29,0,0,1-.71.17c-.47.09-1.14.2-2,.32-1.68.25-4,.52-6.58.68s-4.93.18-6.62.13c-.85,0-1.53,0-2-.08a3.42,3.42,0,0,1-.74-.08,3.14,3.14,0,0,1,.74,0l2,0c1.69,0,4-.07,6.6-.22s4.89-.39,6.57-.58l2-.23A2.38,2.38,0,0,1,396.49,202.15Z" style="fill:#fff"></path><path d="M397.69,217.31l-.51.07-1.45.15c-1.25.14-3.08.28-5.34.43-4.51.29-10.77.49-17.67.27s-13.14-.81-17.63-1.39c-2.24-.28-4-.55-5.3-.76l-1.44-.24a2.42,2.42,0,0,1-.49-.11,2.69,2.69,0,0,1,.5,0l1.45.19c1.25.17,3.06.4,5.31.66,4.49.52,10.71,1.08,17.61,1.3s13.14.05,17.65-.18c2.26-.12,4.08-.23,5.34-.33l1.46-.09A2,2,0,0,1,397.69,217.31Z" style="fill:#fff"></path></g></svg>