<svg xmlns="http://www.w3.org/2000/svg" viewBox="0 0 500 500"><g id="freepik--background-simple--inject-11"><path d="M70.19,216c11.15,87.8,55,150.32,183.73,174.34C325.49,403.66,456,361,447.42,283.09c-9.56-86.5-99.69-50.27-174-78.16-44.47-16.68-68.19-107.45-140.32-102.08C76,107.09,64.23,169,70.19,216Z" style="fill:#f0f0f0"></path></g><g id="freepik--id-card--inject-11"><path d="M246.23,182.68s1.55,9.73,2.22,11.86,3.92,10.85,2.91,16.1-3.74,8.12-8.92,7.58l-.12-3s5.46,0,5.68-4.36-1-11.41-3.57-13.87a4.16,4.16,0,0,0-2.8-1.23V182.68Z" style="fill:#455a64"></path><path d="M317.55,62.23s-27.63-1.33-34-1.17a102.12,102.12,0,0,0-21,2.17c-8,1.8-13.49,4.06-16.35,6.83l2-6.55s14.14-17.1,21.75-17.5,21.43,2.6,29.84,6.61S317.55,62.23,317.55,62.23Z" style="fill:#5AA0D0"></path><path d="M317.55,62.23s-27.63-1.33-34-1.17a102.12,102.12,0,0,0-21,2.17c-8,1.8-13.49,4.06-16.35,6.83l2-6.55s14.14-17.1,21.75-17.5,21.43,2.6,29.84,6.61S317.55,62.23,317.55,62.23Z" style="opacity:0.30000000000000004"></path><path d="M377,262.19l-21.08-29-29.12-35.36-26.49-34.72L269.11,124.9s-13.59-14.15-22.32-9.43a8.62,8.62,0,0,0-2.21,6.21l1.22,12.15c-.08-.85,9.86,11.45,9.86,11.45l33.84,44.93,35.64,44.38s31.62,37.31,34.53,40.77,7.49,8.74,12.21,6.11a8.45,8.45,0,0,0,3.88-10.27C374.79,268.57,377,262.19,377,262.19Z" style="fill:#5AA0D0"></path><path d="M377,262.19l-21.08-29-29.12-35.36-26.49-34.72L269.11,124.9s-13.59-14.15-22.32-9.43a8.62,8.62,0,0,0-2.21,6.21l1.22,12.15c-.08-.85,9.86,11.45,9.86,11.45l33.84,44.93,35.64,44.38s31.62,37.31,34.53,40.77,7.49,8.74,12.21,6.11a8.45,8.45,0,0,0,3.88-10.27C374.79,268.57,377,262.19,377,262.19Z" style="opacity:0.30000000000000004"></path><path d="M392.65,246.57h0c-.17-1.23-.28-2-.28-2l-7.61-34.33-13.19-60.7s-8.29-36.55-10.89-43.15S338.46,76.3,331,70.58c-2.38-1.81-8.27-5.76-11.26-7.47h0s-20.2-12.26-34.53-15.3S265.48,43.26,253.08,58l-1.62,3.53s14.16-12.36,16.32-13.27,13.49-.23,21.88,2.38,26.76,12.52,26.83,12.56c4.42,2.73,15.4,9.75,16.68,12.62a36.47,36.47,0,0,1,3.61,11.62c1.34,8.2,4.45,19,6.35,27,0,0,7.79,35.79,8.61,38.69,4.22,14.76,13.09,68.45,13.09,68.45s8.27,44.87,8.55,47.37,2.2,10-4.1,13.17l23.93-5.55s2.08-.55,2.22-5.13C395.54,267.76,393.42,252.12,392.65,246.57Z" style="fill:#5AA0D0"></path><path d="M157.6,204.62V424.51H324.2V204.62ZM208,221.5H191.76a3.27,3.27,0,1,1,0-6.53H208a3.27,3.27,0,0,1,0,6.53Zm34.23,0a4.38,4.38,0,1,1,4.38-4.38A4.38,4.38,0,0,1,242.21,221.5Zm50.35,0H276.33a3.27,3.27,0,0,1,0-6.53h16.23a3.27,3.27,0,0,1,0,6.53Z" style="fill:#fff"></path><path d="M157.6,204.62V424.51H324.2V204.62ZM208,221.5H191.76a3.27,3.27,0,1,1,0-6.53H208a3.27,3.27,0,0,1,0,6.53Zm34.23,0a4.38,4.38,0,1,1,4.38-4.38A4.38,4.38,0,0,1,242.21,221.5Zm50.35,0H276.33a3.27,3.27,0,0,1,0-6.53h16.23a3.27,3.27,0,0,1,0,6.53Z" style="fill:none"></path><path d="M292.56,221.5a4.05,4.05,0,0,0,1.88-.73,3.11,3.11,0,0,0-1.31-5.54,16.22,16.22,0,0,0-2,0l-4.49,0-10.31,0a3,3,0,0,0-3,3.2,3,3,0,0,0,3.06,2.83l8.41.06,5.68.08,1.54,0a1.8,1.8,0,0,1,.54.05,2.34,2.34,0,0,1-.54.05l-1.54,0-5.68.08-8.41.06a3.54,3.54,0,0,1-2.39-.89,3.51,3.51,0,0,1-.26-5,3.53,3.53,0,0,1,2.59-1.15l10.31,0,4.49,0a15.85,15.85,0,0,1,2.07.07,3.49,3.49,0,0,1,1.74.92,3.4,3.4,0,0,1,1,3.11,3.3,3.3,0,0,1-1.34,2.08,3.14,3.14,0,0,1-1.46.56A1.47,1.47,0,0,1,292.56,221.5Z" style="fill:#263238"></path><path d="M242.21,221.5c0-.05.39-.05,1-.24a4.34,4.34,0,0,0,2.3-1.6,4.25,4.25,0,0,0,.55-3.95,4.15,4.15,0,0,0-7.78,0,4.22,4.22,0,0,0,.55,3.95,4.36,4.36,0,0,0,2.29,1.6c.66.19,1.05.19,1.05.24s-.1,0-.28,0a3.46,3.46,0,0,1-.82-.08,4.34,4.34,0,0,1-2.53-1.58,4.53,4.53,0,0,1-.71-4.34,4.61,4.61,0,0,1,8.68,0,4.56,4.56,0,0,1-.71,4.34,4.33,4.33,0,0,1-2.54,1.58,3.39,3.39,0,0,1-.81.08C242.31,221.53,242.21,221.52,242.21,221.5Z" style="fill:#263238"></path><path d="M208,221.5a4.05,4.05,0,0,0,1.88-.73,3.13,3.13,0,0,0,.25-4.75,3.07,3.07,0,0,0-1.55-.79,16.26,16.26,0,0,0-2,0l-4.5,0-10.3,0a3,3,0,0,0-3,3.2,3,3,0,0,0,3.05,2.83l8.42.06,5.67.08,1.54,0a1.73,1.73,0,0,1,.54.05,2.24,2.24,0,0,1-.54.05l-1.54,0-5.67.08-8.42.06a3.55,3.55,0,0,1-2.39-.89,3.51,3.51,0,0,1-.26-5,3.57,3.57,0,0,1,2.6-1.15l10.3,0,4.5,0a15.85,15.85,0,0,1,2.07.07,3.53,3.53,0,0,1,1.74.92,3.44,3.44,0,0,1,1,3.11,3.31,3.31,0,0,1-1.35,2.08,3.1,3.1,0,0,1-1.46.56A1.5,1.5,0,0,1,208,221.5Z" style="fill:#263238"></path><path d="M157.6,204.62l166.6-.22h.22v.22c0,62.19,0,138.06.05,219.87v.28h-.27l-166.6,0h-.24v-.23c.13-130.32.23-217.83.23-219.89,0,2.06.1,89.57.23,219.89l-.23-.24,166.6,0-.26.26v0c0-81.81,0-157.68.05-219.87l.21.21Z" style="fill:#263238"></path><path d="M299.79,306.06a4.77,4.77,0,1,1,4.76-4.77A4.78,4.78,0,0,1,299.79,306.06Zm0-8.54a3.77,3.77,0,1,0,3.76,3.77A3.77,3.77,0,0,0,299.79,297.52Z" style="fill:#5AA0D0"></path><circle cx="303.67" cy="320.63" r="2.13" style="fill:#5AA0D0"></circle><path d="M195,255.06l-3.17-3.16,3.17-3.17,3.17,3.17Zm-1.75-3.16,1.75,1.75,1.76-1.75L195,250.14Z" style="fill:#5AA0D0"></path><polygon points="184.63 370.56 188.5 372.68 192.36 374.81 188.58 377.09 184.81 379.37 184.72 374.97 184.63 370.56" style="fill:#5AA0D0"></polygon><path d="M268.13,342.82l-.14.08L264.64,336h0l-.54-.12-1,16.92.7,6.27c5.54-2.13,11.11-4.65,10.68-6.07-.23-.75-2.83-5.23-5.84-10.27a2.24,2.24,0,0,1-.67.25Z" style="fill:#ebebeb"></path><path d="M257.56,289.89a4.39,4.39,0,0,1-4.41,4.16,6.42,6.42,0,0,1-5.38-3.72l0,7.52c.18,0,.29-.05.3,0h0c11,.71,19.11,5.47,25.21,13.8h0s9.4,13,14,20.64L286,333a1.09,1.09,0,0,0,.08.15,8.53,8.53,0,0,1,1.69-.74,8.74,8.74,0,0,1-1.56,1c.64,1.17,1.27,2.36,1.88,3.58.08-1.06.13-2.12.13-3.2a46.64,46.64,0,0,0-26.83-42.22,6.11,6.11,0,0,1-3.39-1.43Z" style="fill:#ebebeb"></path><path d="M229.48,297.81s.1,0,.27,0c-.08-2.64-.22-6.25-.28-7.81l-.05-.78a11.15,11.15,0,0,1-1.12-.2,46.76,46.76,0,0,0-29.11,25.35l9.41-7.13C216.21,301.66,221.25,298.16,229.48,297.81Z" style="fill:#ebebeb"></path><path d="M216.15,346.76c1,1.77,1.82,2.75,1.77,2.8s-.29-.21-.69-.69a19.66,19.66,0,0,1-1.53-2.16c-.59-1-1.28-2.06-2-3.41a11.06,11.06,0,0,1-.75-4.8,1,1,0,0,1,0-.17,14.63,14.63,0,0,1,.84-5.31l-5.3,3.76h0a32.24,32.24,0,0,1-2.37-2.52l-.44-.48a114.92,114.92,0,0,1-10.4,5.38,46.64,46.64,0,0,0,22,34.4l.78-24.23C217.4,348.46,216.74,347.6,216.15,346.76Z" style="fill:#ebebeb"></path><path d="M289.36,339.4c-.4-.83-.81-1.66-1.23-2.47-.61-1.22-1.24-2.41-1.88-3.58-1.73,1-4.75,2.68-8.21,4.52-4.26,2.28-7.91,4.15-9.36,4.81,3,5,5.61,9.52,5.84,10.27.43,1.42-5.14,3.94-10.68,6.07l1.65,14.74c.29-.18.59-.34.89-.52A49.2,49.2,0,0,0,289.36,339.4Z" style="fill:#ffbe9d"></path><path d="M200.48,328.18c-2.24-2.36-4.22-4.55-5.58-6.2-.65-.77-1.16-1.41-1.51-1.88-2.65,1.86-4.54,2.9-4.71,2.22-3.34-13.7-2.4-31.18-1.86-37.88.37-.58.8-1.21,1.31-1.91a8.91,8.91,0,0,1,2.13-2.07,13.37,13.37,0,0,1,3.23-1.82c1.1-.31,1.28-1.77.32-2.12s-4,.43-6.82,2.79-1.67-3.25-1.29-5.29,1.27-8.44.73-9c-.8-.88-1.91-.18-2.25,1.87s-1.77,8.16-2.84,7.93,1-10.63,1-10.63.81-2.16-.42-2.46c-2.23-.55-3.63,10.66-3.74,11.73-.07.74-1.25.54-1.13-.25s2.33-10.35.07-10.92c-1.74-.45-1.24,9.21-2.8,11s.38-7.38-1.3-7.73c-.62-.13-1.11-.15-1.46,5.24a119.2,119.2,0,0,0,.47,13c-1.48,14.78-3.06,65.82,16.07,58.47,2.56-1,4.95-2,7.2-3a114.92,114.92,0,0,0,10.4-5.38C204.33,332.26,202.51,330.33,200.48,328.18Z" style="fill:#ffbe9d"></path><path d="M254.89,377.42c-.14-.7.79-.72.79-.72s-1-1-.43-1.66,1.8.44,1.8.44.25-.77.73-.74.88,1.3.88,1.3.31-.53.72-.38c.15,0,.35.4.51.89a48.68,48.68,0,0,0,5.6-2.79L263.84,359l-.7-6.27,1-16.92.54.12h0L268,342.9l.14-.08c.71-.52,4.74-2.77,9.66-5.41l3.52-1.86L286,333l1.25-.69c-4.56-7.6-14-20.64-14-20.64h0c-6.1-8.33-14.2-13.09-25.21-13.8h0a10.79,10.79,0,0,1-2.64.89,28.15,28.15,0,0,1-6.68.8,28.62,28.62,0,0,1-6.68-.81,9.85,9.85,0,0,1-2.64-.9c-8.23.35-13.27,3.85-20.88,9.45l-9.41,7.13-6.38,4.84a28.76,28.76,0,0,1,2.37,2.51c1.43,1.58,3.44,3.72,5.68,6.08s4.21,4.55,5.58,6.2c.68.82,1.22,1.5,1.57,2a3.46,3.46,0,0,1,.52.78l5.3-3.76a14.63,14.63,0,0,0-.84,5.31,16.16,16.16,0,0,1,.19-2.33,14,14,0,0,1,.62-2.27,15.94,15.94,0,0,1,1.88-3.47,20.71,20.71,0,0,1,1.67-2.06,3.72,3.72,0,0,1,.71-.66c.07.06-.86,1.08-2.07,2.93a16.1,16.1,0,0,0-1.73,3.43,13.38,13.38,0,0,0-.76,4.61,11.26,11.26,0,0,0,.67,4.6c.62,1.27,1.31,2.45,1.84,3.41l.14.24c.59.84,1.25,1.7,2,2.57l-.78,24.23,0,.8a49.55,49.55,0,0,0,6,2.79c.14-.4.77-.42.77-.42s-1-1-.43-1.67,1.8.44,1.8.44.25-.76.73-.74.88,1.31.88,1.31.31-.53.72-.39,1,1.72.66,3.11a49.51,49.51,0,0,0,12.37,1.57h.37a48.83,48.83,0,0,0,14.23-2.19A1.24,1.24,0,0,1,254.89,377.42Zm3-15a.41.41,0,0,1,0-.82A.41.41,0,0,1,257.9,362.4Zm9.15-36.72h-.16a.28.28,0,0,1,0-.55h.16C267.42,325.08,267.42,325.71,267.05,325.68Zm6.42,10.49s-.3.24-.73-.31c0,0,.15,1.13-.43,1.55s-1-.42-1-.42-.44,1.34-1.33,1.1-.36-1.81-.36-1.81-.8.09-1-.35.8-1.35.8-1.35-.6-.06-.65-.49,1.7-2.15,3.42-2a7.77,7.77,0,0,1,.89-1.71,6.73,6.73,0,0,1-.57,1.76C272.83,332.42,274.5,334.54,273.47,336.17Zm7.39-6a.39.39,0,0,1,0-.77A.39.39,0,0,1,280.86,330.19ZM269.48,316c.6-.7,1.79.44,1.79.44s.26-.76.73-.74.89,1.31.89,1.31.3-.53.72-.39,1.24,2.47.33,3.95a7.22,7.22,0,0,1,1.16,1.52,6.83,6.83,0,0,1-1.35-1.27c-.34.15-3,.77-4-.87,0,0-.09-.37.59-.53,0,0-1.08-.34-1.22-1s.8-.71.8-.71S268.88,316.69,269.48,316Zm-8.25-10.43a.3.3,0,0,1,0,.6A.3.3,0,0,1,261.23,305.55Zm-1.5,9.07a.3.3,0,0,1,0,.6A.3.3,0,0,1,259.73,314.62Zm-1.21,24.47c.22.22.08.72-.28.68h-.09a.32.32,0,0,1-.3-.31v-.08C257.79,339,258.3,338.86,258.52,339.09ZM254,327.44a.37.37,0,0,1,0,.73A.37.37,0,0,1,254,327.44ZM248.61,304s.3-.23.72.33c0,0-.12-1.13.47-1.53s1,.46,1,.46.48-1.33,1.37-1.05.29,1.82.29,1.82.81-.06,1,.38-.85,1.32-.85,1.32.61.08.64.52-1.78,2.09-3.5,1.83a7.42,7.42,0,0,1-.94,1.68,6.38,6.38,0,0,1,.63-1.74C249.11,307.74,247.51,305.57,248.61,304Zm-7.75,44.82.15,0a.29.29,0,0,1,0,.56l-.15,0A.32.32,0,1,1,240.86,348.79Zm-.63-25.89v-.17a.37.37,0,0,1,.73,0v.17C241,323.39,240.18,323.39,240.23,322.9Zm-1.45,52.44a.38.38,0,0,1,.32.56l0,.06a.32.32,0,0,1-.55,0l-.05-.06A.38.38,0,0,1,238.78,375.34Zm0-37.61a.39.39,0,0,1,0,.78A.39.39,0,0,1,238.78,337.73Zm-.66,23.68c0,.44-.71.44-.69,0v-.08a.34.34,0,0,1,.68,0Zm-1.33-51.73a.35.35,0,1,1-.68,0v-.08a.34.34,0,0,1,.65,0Zm-15.56,46.94a.22.22,0,0,1,0,.43A.22.22,0,0,1,221.23,356.62Zm-2.57-15.26.05-.15a.28.28,0,0,1,.54,0l.05.15C219.49,341.9,218.47,341.89,218.66,341.36Zm-2.16-21.8,0-.07a.34.34,0,0,1,.58,0l0,.07C217.46,320.25,216.18,320.25,216.5,319.56Zm-.35-10a.33.33,0,0,1,0,.66A.33.33,0,0,1,216.15,309.6Zm-13.47,15a.34.34,0,0,1,0-.67A.34.34,0,0,1,202.68,324.65Zm2-6.24s-.08-.37.59-.53c0,0-1.08-.34-1.22-1s.8-.72.8-.72-1-1-.43-1.66,1.79.44,1.79.44.26-.77.73-.74.89,1.3.89,1.3.3-.53.72-.38,1.24,2.47.33,3.95a7.32,7.32,0,0,1,1.16,1.51,6.47,6.47,0,0,1-1.35-1.27C208.38,319.42,205.75,320,204.71,318.41Zm7.19,14.66s-.3.24-.73-.31c0,0,.15,1.13-.42,1.55s-1-.42-1-.42-.43,1.34-1.33,1.1-.36-1.82-.36-1.82-.8.1-1-.34.81-1.36.81-1.36-.61-.05-.66-.48,1.7-2.16,3.43-2a6.87,6.87,0,0,1,.89-1.71,7,7,0,0,1-.58,1.76C211.26,329.32,212.94,331.43,211.9,333.07ZM224,308.79a7.21,7.21,0,0,1-.95,1.68,7.12,7.12,0,0,1,.64-1.74c-.27-.25-1.87-2.42-.78-4,0,0,.31-.23.72.33,0,0-.11-1.13.48-1.53s1,.45,1,.45.48-1.32,1.36-1,.3,1.83.3,1.83.81-.07,1,.38-.85,1.32-.85,1.32.6.08.63.52S225.7,309,224,308.79Zm1.53,10s-1-1-.43-1.67,1.8.44,1.8.44.26-.76.73-.74.88,1.3.88,1.3.31-.53.72-.38,1.25,2.47.34,3.95a6.64,6.64,0,0,1,1.15,1.51,7.22,7.22,0,0,1-1.35-1.26c-.33.15-3,.76-4-.87,0,0-.09-.37.59-.53,0,0-1.09-.34-1.22-1S225.51,318.81,225.51,318.81Zm3.67,9.25-.09-.16c-.23-.39.41-.73.58-.35l.07.18C229.9,328.1,229.4,328.43,229.18,328.06Zm-3.93,12.3a7.12,7.12,0,0,1,.64-1.74c-.27-.25-1.87-2.42-.78-4,0,0,.31-.23.72.34,0,0-.11-1.14.48-1.54s1,.46,1,.46.48-1.33,1.36-1.05.3,1.82.3,1.82.81-.06,1,.38-.85,1.33-.85,1.33.6.07.64.51-1.78,2.09-3.5,1.84A6.85,6.85,0,0,1,225.25,340.36Zm2.89,28.45-.17.06c-.35.14-.53-.39-.24-.57l.15-.1C228.28,367.94,228.6,368.63,228.14,368.81Zm-1-14.05s-.09-.37.59-.53c0,0-1.08-.34-1.22-1s.79-.72.79-.72-1-1-.43-1.67,1.8.45,1.8.45.26-.77.73-.74.88,1.3.88,1.3.31-.53.72-.39,1.25,2.47.34,3.95a6.56,6.56,0,0,1,1.15,1.52,7.53,7.53,0,0,1-1.35-1.27C230.85,355.78,228.22,356.4,227.18,354.76Zm19.54,11c0,.42-1.78,2.09-3.5,1.84a6.38,6.38,0,0,1-.95,1.67,7,7,0,0,1,.64-1.73c-.27-.26-1.87-2.43-.78-4,0,0,.31-.22.72.34,0,0-.11-1.13.48-1.53s1,.45,1,.45.48-1.33,1.36-1.05.3,1.82.3,1.82.81-.06,1,.38-.85,1.33-.85,1.33S246.68,365.35,246.72,365.79ZM249.26,337c0,.41-1.78,2.09-3.49,1.84a7.72,7.72,0,0,1-1,1.67,6.38,6.38,0,0,1,.63-1.74c-.27-.25-1.87-2.42-.77-4,0,0,.31-.23.72.34,0,0-.12-1.14.48-1.53s1,.45,1,.45.49-1.33,1.37-1,.3,1.82.3,1.82.8-.06,1,.38-.85,1.33-.85,1.33S249.23,336.58,249.26,337Zm-1.72-15.93s-.09-.37.59-.53c0,0-1.08-.34-1.22-1s.8-.71.8-.71-1-1-.43-1.67,1.79.44,1.79.44.26-.76.73-.74.88,1.3.88,1.3.31-.53.72-.38,1.25,2.47.34,3.95a6.64,6.64,0,0,1,1.15,1.51,7,7,0,0,1-1.34-1.26C251.21,322.11,248.58,322.72,247.54,321.09Zm3.63,52.6a.39.39,0,0,1,0-.78A.39.39,0,0,1,251.17,373.69Zm1.58-19.88s-.09-.37.59-.53c0,0-1.09-.34-1.22-1s.79-.71.79-.71-1-1-.43-1.67,1.79.44,1.79.44.26-.77.74-.74.88,1.3.88,1.3.3-.53.72-.38,1.24,2.47.33,3.95a7.32,7.32,0,0,1,1.16,1.51,6.47,6.47,0,0,1-1.35-1.27C256.41,354.83,253.79,355.44,252.75,353.81Z" style="fill:#5AA0D0"></path><path d="M208.72,319.27l-.61-.65a11.14,11.14,0,0,1-1.7-2.14,11.44,11.44,0,0,1,2,1.92l.55.63c.91-1.48.06-3.82-.33-3.95s-.72.38-.72.38-.41-1.28-.89-1.3-.73.74-.73.74-1.19-1.15-1.79-.44.43,1.66.43,1.66-.93,0-.8.72,1.22,1,1.22,1c-.67.16-.59.53-.59.53C205.75,320,208.38,319.42,208.72,319.27Z" style="fill:#e0e0e0"></path><path d="M206.41,316.48a11.14,11.14,0,0,0,1.7,2.14l.61.65a6.47,6.47,0,0,0,1.35,1.27,7.32,7.32,0,0,0-1.16-1.51l-.55-.63A11.44,11.44,0,0,0,206.41,316.48Z" style="fill:#263238"></path><path d="M225.94,320.56c-.68.16-.59.53-.59.53,1,1.63,3.67,1,4,.87l-.6-.66a11.46,11.46,0,0,1-1.71-2.14,11.5,11.5,0,0,1,2,1.92l.56.63c.91-1.48.06-3.82-.34-3.95s-.72.38-.72.38-.41-1.27-.88-1.3-.73.74-.73.74-1.2-1.14-1.8-.44.43,1.67.43,1.67-.93,0-.79.71S225.94,320.56,225.94,320.56Z" style="fill:#e0e0e0"></path><path d="M227,319.16a11.46,11.46,0,0,0,1.71,2.14l.6.66a7.22,7.22,0,0,0,1.35,1.26,6.64,6.64,0,0,0-1.15-1.51l-.56-.63A11.5,11.5,0,0,0,227,319.16Z" style="fill:#263238"></path><path d="M250.94,321.3a12,12,0,0,1-1.71-2.14,11.75,11.75,0,0,1,2,1.92l.55.63c.91-1.48.06-3.82-.34-3.95s-.72.38-.72.38-.4-1.27-.88-1.3-.73.74-.73.74-1.19-1.14-1.79-.44.43,1.67.43,1.67-.94,0-.8.71,1.22,1,1.22,1c-.68.16-.59.53-.59.53,1,1.63,3.67,1,4,.87Z" style="fill:#e0e0e0"></path><path d="M249.23,319.16a12,12,0,0,0,1.71,2.14l.61.66a7,7,0,0,0,1.34,1.26,6.64,6.64,0,0,0-1.15-1.51l-.55-.63A11.75,11.75,0,0,0,249.23,319.16Z" style="fill:#263238"></path><path d="M256.75,354.67l-.6-.65a11.46,11.46,0,0,1-1.71-2.14,11.93,11.93,0,0,1,1.95,1.92l.55.63c.91-1.48.07-3.82-.33-3.95s-.72.38-.72.38-.41-1.27-.88-1.3-.74.74-.74.74-1.19-1.15-1.79-.44.43,1.67.43,1.67-.93,0-.79.71,1.22,1,1.22,1c-.68.16-.59.53-.59.53C253.79,355.44,256.41,354.83,256.75,354.67Z" style="fill:#e0e0e0"></path><path d="M254.44,351.88a11.46,11.46,0,0,0,1.71,2.14l.6.65a6.47,6.47,0,0,0,1.35,1.27,7.32,7.32,0,0,0-1.16-1.51l-.55-.63A11.93,11.93,0,0,0,254.44,351.88Z" style="fill:#263238"></path><path d="M227.85,375.68c-.41-.14-.72.39-.72.39s-.41-1.28-.88-1.31-.73.74-.73.74-1.2-1.14-1.8-.44.43,1.67.43,1.67-.63,0-.77.42c1,.39,2.08.75,3.14,1.08a4.49,4.49,0,0,1-.84-1.15,7,7,0,0,1,1.38,1.31l1.45.4C228.81,377.4,228.18,375.79,227.85,375.68Z" style="fill:#e0e0e0"></path><path d="M225.68,377.08a4.49,4.49,0,0,0,.84,1.15l.54.16A7,7,0,0,0,225.68,377.08Z" style="fill:#263238"></path><path d="M272.55,332.18c-.1.26-.22.53-.34.82a11.76,11.76,0,0,1-1.21,2.46,11,11,0,0,1,.91-2.59l.32-.74c-1.72-.19-3.47,1.54-3.42,2s.65.49.65.49-1,.91-.8,1.35,1,.35,1,.35-.53,1.56.36,1.81,1.33-1.1,1.33-1.1.41.84,1,.42.43-1.55.43-1.55c.43.55.73.31.73.31C274.5,334.54,272.83,332.42,272.55,332.18Z" style="fill:#e0e0e0"></path><path d="M271,335.46a11.76,11.76,0,0,0,1.21-2.46c.12-.29.24-.56.34-.82a6.73,6.73,0,0,0,.57-1.76,7.77,7.77,0,0,0-.89,1.71l-.32.74A11,11,0,0,0,271,335.46Z" style="fill:#263238"></path><path d="M211,329.08c-.1.26-.21.53-.34.82a11.22,11.22,0,0,1-1.21,2.46,12.2,12.2,0,0,1,.91-2.59c.11-.26.22-.51.33-.74-1.73-.2-3.47,1.54-3.43,2s.66.48.66.48-1,.92-.81,1.36,1,.34,1,.34-.53,1.57.36,1.82,1.33-1.1,1.33-1.1.41.84,1,.42.42-1.55.42-1.55c.43.55.73.31.73.31C212.94,331.43,211.26,329.32,211,329.08Z" style="fill:#e0e0e0"></path><path d="M209.43,332.36a11.22,11.22,0,0,0,1.21-2.46c.13-.29.24-.56.34-.82a7,7,0,0,0,.58-1.76,6.87,6.87,0,0,0-.89,1.71c-.11.23-.22.48-.33.74A12.2,12.2,0,0,0,209.43,332.36Z" style="fill:#263238"></path><path d="M269.11,318.36c.14.7,1.22,1,1.22,1-.68.16-.59.53-.59.53,1,1.64,3.67,1,4,.87-.2-.21-.4-.42-.61-.66a12,12,0,0,1-1.71-2.14,11.33,11.33,0,0,1,2,1.92l.55.63c.91-1.48.06-3.81-.33-3.95s-.72.39-.72.39-.41-1.28-.89-1.31-.73.74-.73.74-1.19-1.14-1.79-.44.43,1.67.43,1.67S269,317.66,269.11,318.36Z" style="fill:#e0e0e0"></path><path d="M271.43,318a12,12,0,0,0,1.71,2.14c.21.24.41.45.61.66a6.83,6.83,0,0,0,1.35,1.27,7.22,7.22,0,0,0-1.16-1.52l-.55-.63A11.33,11.33,0,0,0,271.43,318Z" style="fill:#263238"></path><path d="M231.18,355.63l-.6-.66a12,12,0,0,1-1.71-2.14,11.34,11.34,0,0,1,1.95,1.93c.2.21.38.42.56.62.91-1.48.06-3.81-.34-3.95s-.72.39-.72.39-.4-1.28-.88-1.3-.73.74-.73.74-1.19-1.15-1.8-.45.43,1.67.43,1.67-.93,0-.79.72,1.22,1,1.22,1c-.68.16-.59.53-.59.53C228.22,356.4,230.85,355.78,231.18,355.63Z" style="fill:#e0e0e0"></path><path d="M228.87,352.83a12,12,0,0,0,1.71,2.14l.6.66a7.53,7.53,0,0,0,1.35,1.27,6.56,6.56,0,0,0-1.15-1.52c-.18-.2-.36-.41-.56-.62A11.34,11.34,0,0,0,228.87,352.83Z" style="fill:#263238"></path><path d="M259.38,375.66c-.41-.15-.72.38-.72.38s-.41-1.28-.88-1.3-.73.74-.73.74-1.2-1.15-1.8-.44.43,1.66.43,1.66-.93,0-.79.72a1.24,1.24,0,0,0,.59.74c.67-.21,1.33-.44,2-.67-.19-.25-.29-.41-.26-.43s.2.11.46.36q1.13-.41,2.22-.87C259.73,376.06,259.53,375.71,259.38,375.66Z" style="fill:#e0e0e0"></path><path d="M257.47,377.49l.2-.07c-.26-.25-.43-.39-.46-.36S257.28,377.24,257.47,377.49Z" style="fill:#263238"></path><path d="M229.7,336.85c0-.44-.64-.51-.64-.51s1-.88.85-1.33-1-.38-1-.38.59-1.55-.3-1.82-1.36,1.05-1.36,1.05-.38-.85-1-.46-.48,1.54-.48,1.54c-.41-.57-.72-.34-.72-.34-1.09,1.6.51,3.77.78,4,.11-.25.23-.52.37-.81a11.5,11.5,0,0,1,1.29-2.41,10.75,10.75,0,0,1-1,2.55l-.35.74C227.92,338.94,229.73,337.26,229.7,336.85Z" style="fill:#e0e0e0"></path><path d="M227.55,335.4a11.5,11.5,0,0,0-1.29,2.41c-.14.29-.26.56-.37.81a7.12,7.12,0,0,0-.64,1.74,6.85,6.85,0,0,0,.95-1.67l.35-.74A10.75,10.75,0,0,0,227.55,335.4Z" style="fill:#263238"></path><path d="M246.93,364c-.16-.44-1-.38-1-.38s.59-1.55-.3-1.82-1.36,1.05-1.36,1.05-.38-.85-1-.45-.48,1.53-.48,1.53c-.41-.56-.72-.34-.72-.34-1.09,1.6.51,3.77.78,4,.11-.26.23-.53.37-.82a10.76,10.76,0,0,1,1.3-2.41,11.65,11.65,0,0,1-1,2.55c-.12.26-.23.5-.35.74,1.72.25,3.53-1.42,3.5-1.84s-.64-.51-.64-.51S247.09,364.4,246.93,364Z" style="fill:#e0e0e0"></path><path d="M244.58,364.34a10.76,10.76,0,0,0-1.3,2.41c-.14.29-.26.56-.37.82a7,7,0,0,0-.64,1.73,6.38,6.38,0,0,0,.95-1.67c.12-.24.23-.48.35-.74A11.65,11.65,0,0,0,244.58,364.34Z" style="fill:#263238"></path><path d="M227.47,307c0-.44-.63-.52-.63-.52s1-.87.85-1.32-1-.38-1-.38.59-1.55-.3-1.83-1.36,1-1.36,1-.38-.85-1-.45-.48,1.53-.48,1.53c-.41-.56-.72-.33-.72-.33-1.09,1.6.51,3.77.78,4q.17-.39.36-.81a11.79,11.79,0,0,1,1.3-2.41,10.93,10.93,0,0,1-1,2.55l-.35.73C225.7,309,227.5,307.37,227.47,307Z" style="fill:#e0e0e0"></path><path d="M225.33,305.51a11.79,11.79,0,0,0-1.3,2.41q-.19.42-.36.81a7.12,7.12,0,0,0-.64,1.74,7.21,7.21,0,0,0,.95-1.68l.35-.73A10.93,10.93,0,0,0,225.33,305.51Z" style="fill:#263238"></path><path d="M249.47,335.18c-.16-.44-1-.38-1-.38s.58-1.55-.3-1.82-1.37,1-1.37,1-.37-.85-1-.45-.48,1.53-.48,1.53c-.41-.57-.72-.34-.72-.34-1.1,1.6.5,3.77.77,4,.12-.25.24-.52.37-.81a11.79,11.79,0,0,1,1.3-2.41,11.91,11.91,0,0,1-1,2.55l-.35.74c1.71.25,3.52-1.43,3.49-1.84s-.64-.51-.64-.51S249.64,335.63,249.47,335.18Z" style="fill:#e0e0e0"></path><path d="M247.12,335.57a11.79,11.79,0,0,0-1.3,2.41c-.13.29-.25.56-.37.81a6.38,6.38,0,0,0-.63,1.74,7.72,7.72,0,0,0,1-1.67l.35-.74A11.91,11.91,0,0,0,247.12,335.57Z" style="fill:#263238"></path><path d="M249.38,308l.37-.81a11.25,11.25,0,0,1,1.3-2.41,11.65,11.65,0,0,1-1,2.55c-.12.26-.23.5-.35.73,1.72.26,3.53-1.42,3.5-1.83s-.64-.52-.64-.52,1-.87.85-1.32-1-.38-1-.38.59-1.55-.29-1.82-1.37,1.05-1.37,1.05-.38-.86-1-.46-.47,1.53-.47,1.53c-.42-.56-.72-.33-.72-.33C247.51,305.57,249.11,307.74,249.38,308Z" style="fill:#e0e0e0"></path><path d="M251.05,304.77a11.25,11.25,0,0,0-1.3,2.41l-.37.81a6.38,6.38,0,0,0-.63,1.74,7.42,7.42,0,0,0,.94-1.68c.12-.23.23-.47.35-.73A11.65,11.65,0,0,0,251.05,304.77Z" style="fill:#263238"></path><path d="M247.82,297.85c-.42.08-1.26.28-2.42.51a34.09,34.09,0,0,1-13.2,0c-1.19-.23-2-.44-2.45-.52-.17,0-.26,0-.27,0a9.85,9.85,0,0,0,2.64.9,28.62,28.62,0,0,0,6.68.81,28.15,28.15,0,0,0,6.68-.8,10.79,10.79,0,0,0,2.64-.89h0S248,297.81,247.82,297.85Z" style="fill:#263238"></path><path d="M287.81,332.36a8.53,8.53,0,0,0-1.69.74c-1.16.57-2.84,1.42-4.81,2.45l-3.52,1.86c-4.92,2.64-9,4.89-9.66,5.41l-.12.11a2.24,2.24,0,0,0,.67-.25c1.45-.66,5.1-2.53,9.36-4.81,3.46-1.84,6.48-3.51,8.21-4.52A8.74,8.74,0,0,0,287.81,332.36Z" style="fill:#263238"></path><path d="M200.48,328.18c2,2.15,3.85,4.08,5.24,5.6l.44.48a32.24,32.24,0,0,0,2.37,2.52h0A3.46,3.46,0,0,0,208,336c-.35-.48-.89-1.16-1.57-2-1.37-1.65-3.35-3.83-5.58-6.2s-4.25-4.5-5.68-6.08a28.76,28.76,0,0,0-2.37-2.51h0a3.39,3.39,0,0,0,.51.78l.07.09c.35.47.86,1.11,1.51,1.88C196.26,323.63,198.24,325.82,200.48,328.18Z" style="fill:#263238"></path><path d="M213.73,343.3c.69,1.35,1.38,2.44,2,3.41a19.66,19.66,0,0,0,1.53,2.16c.4.48.66.71.69.69s-.75-1-1.77-2.8l-.14-.24c-.53-1-1.22-2.14-1.84-3.41a11.26,11.26,0,0,1-.67-4.6,13.38,13.38,0,0,1,.76-4.61,16.1,16.1,0,0,1,1.73-3.43c1.21-1.85,2.14-2.87,2.07-2.93a3.72,3.72,0,0,0-.71.66,20.71,20.71,0,0,0-1.67,2.06,15.94,15.94,0,0,0-1.88,3.47,14,14,0,0,0-.62,2.27,16.16,16.16,0,0,0-.19,2.33,1,1,0,0,0,0,.17A11.06,11.06,0,0,0,213.73,343.3Z" style="fill:#263238"></path><path d="M236.12,309.6v.08a.35.35,0,1,0,.68,0l0-.08A.34.34,0,0,0,236.12,309.6Z" style="fill:#263238"></path><path d="M216.15,310.26a.33.33,0,0,0,0-.66A.33.33,0,0,0,216.15,310.26Z" style="fill:#263238"></path><path d="M217.14,319.56l0-.07a.34.34,0,0,0-.58,0l0,.07C216.18,320.25,217.46,320.25,217.14,319.56Z" style="fill:#263238"></path><path d="M202.68,324a.34.34,0,0,0,0,.67A.34.34,0,0,0,202.68,324Z" style="fill:#263238"></path><path d="M241,322.9v-.17a.37.37,0,0,0-.73,0v.17C240.18,323.39,241,323.39,241,322.9Z" style="fill:#263238"></path><path d="M218.71,341.21l-.05.15c-.19.53.83.54.64,0l-.05-.15A.28.28,0,0,0,218.71,341.21Z" style="fill:#263238"></path><path d="M229.09,327.9l.09.16c.22.37.72,0,.56-.33l-.07-.18C229.5,327.17,228.86,327.51,229.09,327.9Z" style="fill:#263238"></path><path d="M238.78,338.51a.39.39,0,0,0,0-.78A.39.39,0,0,0,238.78,338.51Z" style="fill:#263238"></path><path d="M254,328.17a.37.37,0,0,0,0-.73A.37.37,0,0,0,254,328.17Z" style="fill:#263238"></path><path d="M258.15,339.76h.09c.36,0,.5-.46.28-.68s-.73-.08-.68.28v.08A.32.32,0,0,0,258.15,339.76Z" style="fill:#263238"></path><path d="M266.89,325.12a.28.28,0,0,0,0,.55h.16c.37,0,.37-.6,0-.57Z" style="fill:#263238"></path><path d="M259.73,315.22a.3.3,0,0,0,0-.6A.3.3,0,0,0,259.73,315.22Z" style="fill:#263238"></path><path d="M261.23,306.15a.3.3,0,0,0,0-.6A.3.3,0,0,0,261.23,306.15Z" style="fill:#263238"></path><path d="M280.86,329.42a.39.39,0,0,0,0,.77A.39.39,0,0,0,280.86,329.42Z" style="fill:#263238"></path><path d="M240.86,349.41l.15,0a.29.29,0,0,0,0-.56l-.15,0A.32.32,0,1,0,240.86,349.41Z" style="fill:#263238"></path><path d="M221.23,357.05a.22.22,0,0,0,0-.43A.22.22,0,0,0,221.23,357.05Z" style="fill:#263238"></path><path d="M227.88,368.2l-.15.1c-.29.18-.11.71.24.57l.17-.06C228.6,368.63,228.28,367.94,227.88,368.2Z" style="fill:#263238"></path><path d="M237.44,361.33v.08c0,.44.72.44.69,0v-.08A.34.34,0,0,0,237.44,361.33Z" style="fill:#263238"></path><path d="M238.45,375.9l.05.06a.32.32,0,0,0,.55,0l0-.06a.37.37,0,1,0-.65,0Z" style="fill:#263238"></path><path d="M251.17,372.91a.39.39,0,0,0,0,.78A.39.39,0,0,0,251.17,372.91Z" style="fill:#263238"></path><path d="M257.9,361.58a.41.41,0,0,0,0,.82A.41.41,0,0,0,257.9,361.58Z" style="fill:#263238"></path><path d="M265.66,269.74c.41-.66.84-1.29,1.18-1.94a8.54,8.54,0,0,0,.76-2,10.27,10.27,0,0,0,.06-4.09,14.24,14.24,0,0,0-3-6.29c-.35-.44-.7-.84-1-1.22a14.35,14.35,0,0,1,.63,1.65,26.85,26.85,0,0,1,.54,11.19,32.83,32.83,0,0,0-.44,5.59,4.51,4.51,0,0,1,.21-.78A9.82,9.82,0,0,1,265.66,269.74Z" style="fill:none"></path><path d="M257.54,289.61c0,.1,0,.19,0,.28l.48.19A4.48,4.48,0,0,1,257.54,289.61Z" style="fill:none"></path><path d="M247.38,250.26c.05-.08.84.52,1.45,1.69,3.87,4.76,4.24,11.13,2.77,15.93a7,7,0,0,1,.69,2.53c.34,3.55-1.74,4.46-3.46,4.59a1.17,1.17,0,0,0-.05.2,1.79,1.79,0,0,0,.31,1.25,1.6,1.6,0,0,0,1.35.63,1.62,1.62,0,0,0,1.34-.67,1.85,1.85,0,0,0,.27-1.26,3.4,3.4,0,0,0-.51-1.17c0-.06.62.18.87,1.1a2.08,2.08,0,0,1-.23,1.59,2.14,2.14,0,0,1-3.49.05,2.07,2.07,0,0,1-.27-1.58l0-.12a4.72,4.72,0,0,1-.77,0l.09,15.34a6.42,6.42,0,0,0,5.38,3.72,4.39,4.39,0,0,0,4.41-4.16c0-.09,0-.18,0-.28a4.48,4.48,0,0,0,.5.47,6.11,6.11,0,0,0,3.39,1.43,5.75,5.75,0,0,0,2.26-.2,6.12,6.12,0,0,0,4.19-4.82c1.88,0,4.22-.21,4.87-2,.54-1.47-.57-3.07-1.89-3.92a16,16,0,0,0-2-1,4.8,4.8,0,0,1-2.83-1.49,6.53,6.53,0,0,1-1.77-3.93,6,6,0,0,1,.08-1.52,32.83,32.83,0,0,1,.44-5.59,26.85,26.85,0,0,0-.54-11.19,14.35,14.35,0,0,0-.63-1.65c-.86-1-1.65-1.69-2.25-2.25a13.22,13.22,0,0,1-1.28-1.21,2.22,2.22,0,0,1,.38.25c.25.18.6.45,1,.81s1.06.9,1.7,1.52a11.9,11.9,0,0,0-6.07-5.74c-3.45-1.33-7.86-.33-9.9,2.74a1.29,1.29,0,0,1,.17.16C247.39,250.36,247.35,250.28,247.38,250.26Z" style="fill:#263238"></path><path d="M222.72,250.34a21.77,21.77,0,0,1,10.41-2.85,29.36,29.36,0,0,1,6.26.69c5.54,1.17,8.36,4.27,8.36,13.06v4.67a3.66,3.66,0,0,1,3.85,2c1.47-4.8,1.1-11.17-2.77-15.93a6,6,0,0,1,.53,1.36,4.84,4.84,0,0,1-.21,3.63,17.63,17.63,0,0,0-.29-3.5,10.2,10.2,0,0,0-1.42-3,1.29,1.29,0,0,0-.17-.16l-.08-.08c-.16.22-.27.35-.31.33s0-.2.13-.48c-2.64-2.31-6.38-4-11.49-4.59-4.39-.49-7.54.05-9.81,1.1a3.47,3.47,0,0,1,1.46-.14c0,.09-.89.19-2.22.73a12.22,12.22,0,0,0-1.17.56,9.79,9.79,0,0,0-3.56,5.52A5.68,5.68,0,0,1,222.72,250.34Z" style="fill:#263238"></path><path d="M229.42,289.22a19.19,19.19,0,0,0,10.42-3.41s-2.45,5.85-10.29,5.38l-.08-1.17c.06,1.56.2,5.17.28,7.81.4.08,1.26.29,2.45.52a34.09,34.09,0,0,0,13.2,0c1.16-.23,2-.43,2.42-.51l0-7.52L247.68,275a2.61,2.61,0,0,1-1-.22c0-.09,0-2.44,0-4.68-4.47-2-10.49-10.22-10.49-10.22l1.35,3.71a11.4,11.4,0,0,1-10-3.1l1.25,1.8c-5.33-.58-7.59-2.74-8.47-4.93-.21,5.79-.57,17.11-.32,22.93.27,6.27,5.85,8.21,8.29,8.76a11.15,11.15,0,0,0,1.12.2Zm4.8-22a1,1,0,1,1,1,1A1,1,0,0,1,234.22,267.27Zm-1.05-1.53a2.61,2.61,0,0,1,3.15-.14c.35.25.48.5.42.56s-.91-.41-2-.36-1.83.68-1.95.54S232.84,266,233.17,265.74Zm-2.66,13a2.14,2.14,0,0,1,1.25-1.55,1.77,1.77,0,0,1,1.09-.08c.19-.53.24-.94.34-.93s.21.29.17.82a1.47,1.47,0,0,1-.05.34,1.13,1.13,0,0,1,.48,1.06,1.38,1.38,0,0,1-1.11,1,3.24,3.24,0,0,1-1.16,0,2.76,2.76,0,0,1-.91.18c-.53,0-.83-.15-.81-.23s.35-.11.82-.24a.37.37,0,0,1-.13-.34Zm-7-10.71a1,1,0,0,1-1-1,1,1,0,1,1,1,1ZM224.8,266c-.11.14-.91-.42-2-.36s-1.83.67-1.95.54,0-.32.37-.61a2.61,2.61,0,0,1,3.15-.14C224.73,265.64,224.86,265.89,224.8,266Zm2.84,9.75a.71.71,0,0,1-.5-.37,1.79,1.79,0,0,1,0-1.17c.16-.75.34-1.53.52-2.35a40.39,40.39,0,0,1,1.62-6,42.4,42.4,0,0,1-1.17,6.08c-.19.82-.38,1.6-.56,2.34a1.64,1.64,0,0,0-.08.9c.07.19.33.21.61.21a6.33,6.33,0,0,1,1.77.1,6.87,6.87,0,0,1-1.76.23A1.84,1.84,0,0,1,227.64,275.71Z" style="fill:#ffbe9d"></path><path d="M223.52,266a1,1,0,0,0-1,1,1,1,0,1,0,2,0A1,1,0,0,0,223.52,266Z" style="fill:#263238"></path><path d="M224.38,265.39a2.61,2.61,0,0,0-3.15.14c-.33.29-.44.54-.37.61s.87-.5,1.95-.54,1.88.5,2,.36S224.73,265.64,224.38,265.39Z" style="fill:#263238"></path><path d="M236.23,267.31a1,1,0,1,0-2,0,1,1,0,1,0,2,0Z" style="fill:#263238"></path><path d="M234.75,265.8c1.08-.05,1.88.51,2,.36s-.07-.31-.42-.56a2.61,2.61,0,0,0-3.15.14c-.33.28-.44.54-.37.6S233.67,265.84,234.75,265.8Z" style="fill:#263238"></path><path d="M228.1,275.38c-.28,0-.54,0-.61-.21a1.64,1.64,0,0,1,.08-.9c.18-.74.37-1.52.56-2.34a42.4,42.4,0,0,0,1.17-6.08,40.39,40.39,0,0,0-1.62,6c-.18.82-.36,1.6-.52,2.35a1.79,1.79,0,0,0,0,1.17.71.71,0,0,0,.5.37,1.84,1.84,0,0,0,.47,0,6.87,6.87,0,0,0,1.76-.23A6.33,6.33,0,0,0,228.1,275.38Z" style="fill:#263238"></path><path d="M239.84,285.81a19.19,19.19,0,0,1-10.42,3.41v0l.05.78.08,1.17C237.39,291.66,239.84,285.81,239.84,285.81Z" style="fill:#eb996e"></path><path d="M232,278.35a3.37,3.37,0,0,0,.81-1.25,1.77,1.77,0,0,0-1.09.08,2.14,2.14,0,0,0-1.25,1.55l0,0a.37.37,0,0,0,.13.34A3.34,3.34,0,0,0,232,278.35Z" style="fill:#eb996e"></path><path d="M231.52,279.41a3.24,3.24,0,0,0,1.16,0,1.38,1.38,0,0,0,1.11-1,1.13,1.13,0,0,0-.48-1.06,2.86,2.86,0,0,1-.83,1.48A3,3,0,0,1,231.52,279.41Z" style="fill:#eb996e"></path><path d="M230.62,279.12c-.47.13-.82.15-.82.24s.28.24.81.23a2.76,2.76,0,0,0,.91-.18,3,3,0,0,0,1-.6,2.86,2.86,0,0,0,.83-1.48,1.47,1.47,0,0,0,.05-.34c0-.53-.09-.83-.17-.82s-.15.4-.34.93a3.14,3.14,0,0,1-2.23,2Z" style="fill:#263238"></path><path d="M248.45,275c.24-.82.8-1.06.8-1s-.29.36-.42,1c1.72-.13,3.8-1,3.46-4.59a7,7,0,0,0-.69-2.53,3.66,3.66,0,0,0-3.85-2v4.54a5.07,5.07,0,0,1-1-.36c0,2.24-.05,4.59,0,4.68a2.61,2.61,0,0,0,1,.22A4.72,4.72,0,0,0,248.45,275Zm0-7.07a.8.8,0,0,1,.56-.21,1.45,1.45,0,0,1,1.16.81,3.52,3.52,0,0,1,.52,1.61,2.68,2.68,0,0,1-1.25,2.7,1.08,1.08,0,0,1-1-.07c-.19-.12-.24-.25-.22-.27s.11.07.29.13a1.06,1.06,0,0,0,.77-.06,2.57,2.57,0,0,0,1-2.4,3.29,3.29,0,0,0-.44-1.44A1.2,1.2,0,0,0,249,268a.53.53,0,0,0-.58.35c-.06.17,0,.28,0,.3s-.14-.09-.11-.34A.68.68,0,0,1,248.48,268Z" style="fill:#ffbe9d"></path><path d="M248.4,268.68s0-.13,0-.3A.53.53,0,0,1,249,268a1.2,1.2,0,0,1,.85.72,3.29,3.29,0,0,1,.44,1.44,2.57,2.57,0,0,1-1,2.4,1.06,1.06,0,0,1-.77.06c-.18-.06-.26-.15-.29-.13s0,.15.22.27a1.08,1.08,0,0,0,1,.07,2.68,2.68,0,0,0,1.25-2.7,3.52,3.52,0,0,0-.52-1.61,1.45,1.45,0,0,0-1.16-.81.8.8,0,0,0-.56.21.68.68,0,0,0-.19.39C248.26,268.59,248.39,268.69,248.4,268.68Z" style="fill:#eb996e"></path><path d="M228.8,262.28l-1.25-1.8a11.4,11.4,0,0,0,10,3.1l-1.35-3.71s6,8.25,10.49,10.22a5.07,5.07,0,0,0,1,.36v-9.21c0-8.79-2.82-11.89-8.36-13.06a29.36,29.36,0,0,0-6.26-.69,21.77,21.77,0,0,0-10.41,2.85,5.68,5.68,0,0,0-2.5,2.91,5.21,5.21,0,0,0-.28,2.77,6.69,6.69,0,0,0,.39,1.33C221.21,259.54,223.47,261.7,228.8,262.28Z" style="fill:#263238"></path><path d="M246.88,250.55s.15-.11.31-.33a15.47,15.47,0,0,1,2.6-3,28.52,28.52,0,0,1,3.68-2.38,7.39,7.39,0,0,0-4,2,9.15,9.15,0,0,0-2.44,3.21C246.89,250.35,246.85,250.54,246.88,250.55Z" style="fill:#263238"></path><path d="M261.54,251.78c-.44-.36-.79-.63-1-.81a2.22,2.22,0,0,0-.38-.25,13.22,13.22,0,0,0,1.28,1.21c.6.56,1.39,1.3,2.25,2.25.34.38.69.78,1,1.22a14.24,14.24,0,0,1,3,6.29,10.27,10.27,0,0,1-.06,4.09,8.54,8.54,0,0,1-.76,2c-.34.65-.77,1.28-1.18,1.94a9.82,9.82,0,0,0-1.07,2.09,4.51,4.51,0,0,0-.21.78,6,6,0,0,0-.08,1.52,6.53,6.53,0,0,0,1.77,3.93,4.8,4.8,0,0,0,2.83,1.49,3.68,3.68,0,0,0,.74,0,3.34,3.34,0,0,0,2.88-1.75,2.89,2.89,0,0,0,0-2.79,2.48,2.48,0,0,0-1.8-1.1,2.14,2.14,0,0,0-1.31.24,1.12,1.12,0,0,0-.36.3,2.35,2.35,0,0,1,1.64-.34,2.24,2.24,0,0,1,1.58,1.05,2.58,2.58,0,0,1-.05,2.47,3,3,0,0,1-2.57,1.49,4.15,4.15,0,0,1-3.21-1.42,6.09,6.09,0,0,1-1.6-3.63A6.3,6.3,0,0,1,266.1,270c.41-.65.84-1.29,1.2-2a8.57,8.57,0,0,0,.79-2.15,10.48,10.48,0,0,0,0-4.28,14.26,14.26,0,0,0-3.15-6.44,23.51,23.51,0,0,0-1.74-1.87C262.6,252.68,262,252.17,261.54,251.78Z" style="fill:#263238"></path><path d="M247.38,250.26s0,.1.06.2a10.2,10.2,0,0,1,1.42,3,17.63,17.63,0,0,1,.29,3.5,4.84,4.84,0,0,0,.21-3.63,6,6,0,0,0-.53-1.36C248.22,250.78,247.43,250.18,247.38,250.26Z" style="fill:#5AA0D0"></path><path d="M248.45,275l0,.12a2.07,2.07,0,0,0,.27,1.58,2.14,2.14,0,0,0,3.49-.05,2.08,2.08,0,0,0,.23-1.59c-.25-.92-.87-1.16-.87-1.1a3.4,3.4,0,0,1,.51,1.17,1.85,1.85,0,0,1-.27,1.26,1.62,1.62,0,0,1-1.34.67,1.6,1.6,0,0,1-1.35-.63,1.79,1.79,0,0,1-.31-1.25,1.17,1.17,0,0,1,.05-.2c.13-.63.48-.93.42-1S248.69,274.2,248.45,275Z" style="fill:#5AA0D0"></path><path d="M227.17,246.44a3.47,3.47,0,0,0-1.46.14,8.9,8.9,0,0,0-.89.25,10,10,0,0,0-6.75,8.68,5.35,5.35,0,0,0,.21,2.37c.09,0,0-.91.16-2.33a10.38,10.38,0,0,1,5.34-7.82,12.22,12.22,0,0,1,1.17-.56C226.28,246.63,227.18,246.53,227.17,246.44Z" style="fill:#263238"></path><path d="M159.08,415.41c1.46-10,12.23-16.49,22.37-16.94s19.89,3.47,29.53,6.64,20.22,5.61,29.8,2.25c12.11-4.26,19.26-16.46,29-24.83a54,54,0,0,1,54.29-8.95v50.93H157.6Z" style="fill:#5AA0D0"></path><rect x="216.38" y="389.61" width="55.62" height="2.95" style="fill:#263238"></rect><rect x="197.94" y="396.55" width="92.5" height="2.95" style="fill:#263238"></rect><path d="M157.6,204.62c8.74,11,26.44,18.73,40.46,19.69,9.35.65,18.66-1.3,28-2.16s19.25-.49,27.31,4.28c9.91,5.87,15.19,17.24,24,24.71,12.91,11,33.49,11.71,47.12,1.62V203ZM208,221.5H191.76a3.27,3.27,0,1,1,0-6.53H208a3.27,3.27,0,0,1,0,6.53Zm34.23,0a4.38,4.38,0,1,1,4.38-4.38A4.38,4.38,0,0,1,242.21,221.5Zm50.35,0H276.33a3.27,3.27,0,0,1,0-6.53h16.23a3.27,3.27,0,0,1,0,6.53Z" style="fill:#5AA0D0"></path><path d="M157.6,204.62c8.74,11,26.44,18.73,40.46,19.69,9.35.65,18.66-1.3,28-2.16s19.25-.49,27.31,4.28c9.91,5.87,15.19,17.24,24,24.71,12.91,11,33.49,11.71,47.12,1.62V203ZM208,221.5H191.76a3.27,3.27,0,1,1,0-6.53H208a3.27,3.27,0,0,1,0,6.53Zm34.23,0a4.38,4.38,0,1,1,4.38-4.38A4.38,4.38,0,0,1,242.21,221.5Zm50.35,0H276.33a3.27,3.27,0,0,1,0-6.53h16.23a3.27,3.27,0,0,1,0,6.53Z" style="fill:#fff;opacity:0.5"></path><path d="M248.83,180.56H235.59a10.46,10.46,0,0,1,0-20.92h13.24a10.46,10.46,0,0,1,0,20.92Zm-13.24-16.92a6.46,6.46,0,0,0,0,12.92h13.24a6.46,6.46,0,0,0,0-12.92Z" style="fill:#263238"></path><path d="M238.73,182.68s-1.55,9.73-2.22,11.86-3.92,10.85-2.91,16.1,3.74,8.12,8.92,7.58l.12-3s-5.46,0-5.69-4.36,1-11.41,3.58-13.87a4.16,4.16,0,0,1,2.8-1.23V182.68Z" style="fill:#455a64"></path><path d="M239.3,190.85h-5.07a3.52,3.52,0,0,0-3.53,3.52h0a3.52,3.52,0,0,0,3.53,3.52h3.86Z" style="fill:#455a64"></path><polygon points="237.02 175.63 237.02 181.55 238.21 181.55 238.21 183.76 246.17 183.76 246.17 181.86 247.4 181.86 247.4 175.63 237.02 175.63" style="fill:#263238"></polygon><rect x="238.58" y="173.47" width="6.98" height="3.54" style="fill:#263238"></rect><path d="M233,166.62l-1.38-47.88s-.42-14,.07-25.24c.31-7.18,1.17-12.34,4.74-17.12,4-5.38,23.17-24.64,23.17-24.64s-6.84,14.75-7,23.18c-.18,10.29.13,16.8.45,29.33.2,7.68.95,16.6,1.18,22.15.31,7.3.94,24.11.94,24.11v16.11Z" style="fill:#5AA0D0"></path></g></svg>